<?xml version="1.0" encoding="utf-8"?>
<!-- Generator: Adobe Illustrator 19.0.1, SVG Export Plug-In . SVG Version: 6.00 Build 0)  -->
<svg version="1.1" id="Слой_1" xmlns="http://www.w3.org/2000/svg" xmlns:xlink="http://www.w3.org/1999/xlink" x="0px" y="0px"
	 viewBox="0 0 81.1 80.2" style="enable-background:new 0 0 81.1 80.2;" xml:space="preserve">
<style type="text/css">
	.st0{fill-rule:evenodd;clip-rule:evenodd;fill:#50ADD6;}
	.st1{fill-rule:evenodd;clip-rule:evenodd;fill:#6BBEE0;}
	.st2{fill-rule:evenodd;clip-rule:evenodd;fill:#77C3E8;}
	.st3{fill-rule:evenodd;clip-rule:evenodd;fill:#79BCDD;}
	.st4{fill-rule:evenodd;clip-rule:evenodd;fill:none;stroke:#4D59A1;stroke-width:0.1;stroke-miterlimit:10;}
	.st5{fill-rule:evenodd;clip-rule:evenodd;fill:#456A7E;}
	.st6{fill:#50ADD6;stroke:#50ADD6;stroke-miterlimit:10;}
	.st7{fill-rule:evenodd;clip-rule:evenodd;fill:#D76349;}
	.st8{fill-rule:evenodd;clip-rule:evenodd;fill:#FAFCFE;}
</style>
<polygon id="XMLID_281_" class="st0" points="61.1,39.8 61.1,49.4 51.1,44.6 41.1,39.8 51.1,35 61.1,30.2 "/>
<polygon id="XMLID_280_" class="st1" points="61.1,20.7 61.1,30.2 51.1,25.5 41.1,20.7 51.1,15.9 61.1,11.1 "/>
<path id="XMLID_279_" class="st1" d="M21.1,20.7v9.6l-10-4.8c-2-0.9-3.9-1.9-5.9-2.8c0.4-0.9,0.9-1.8,1.5-2.7c0.6-1,1.2-2,1.9-2.8
	c0.5-0.2,2-1,2.5-1.2c3.3-1.6,6.7-3.2,10-4.8V20.7z"/>
<path id="XMLID_278_" class="st1" d="M21.1,58.9v9.6l-10-4.8c-1.1-0.5-2.1-1-3.2-1.5c-0.5-0.7-1-1.5-1.4-2.3C6,58.9,5.5,58,5,57.1
	c2-1,4.1-2,6.1-2.9l10-4.8V58.9z"/>
<polygon id="XMLID_277_" class="st2" points="41.1,11.1 41.1,20.7 31.1,15.9 21.1,11.1 31.1,6.3 41.1,1.5 "/>
<path id="XMLID_276_" class="st1" d="M21.1,5.8c0,1.8,0,3.5,0,5.3C19.6,10.4,18,9.7,16.4,9c0.7-0.6,1.5-1.1,2.3-1.7
	C19.5,6.8,20.3,6.3,21.1,5.8z"/>
<path id="XMLID_275_" class="st2" d="M70.3,13.1c1.3,1.4,2.5,2.8,3.4,4.1c-0.9-0.4-1.8-0.8-2.7-1.3l-10-4.8c1.5-0.7,3.1-1.5,4.6-2.2
	C67.2,10,68.7,11.4,70.3,13.1z"/>
<path id="XMLID_274_" class="st1" d="M61.1,11.1l-10-4.8l-10-4.8c0.7-0.3,1.3-0.6,2-1c2.9,0.1,7.2,0.7,11.9,2.4
	c4.8,1.8,8.4,4.1,10.7,5.9C64.2,9.6,62.6,10.4,61.1,11.1z"/>
<polygon id="XMLID_273_" class="st2" points="41.1,11.1 41.1,1.5 51.1,6.3 61.1,11.1 51.1,15.9 41.1,20.7 "/>
<path id="XMLID_272_" class="st1" d="M21.1,5.8c2.1-1.2,4.8-2.4,8-3.4c3.9-1.2,7.3-1.7,10-1.8c0.7,0.3,1.3,0.6,2,1l-10,4.8l-10,4.8
	C21.1,9.3,21.1,7.6,21.1,5.8z"/>
<path id="XMLID_271_" class="st1" d="M66.3,71c-2.2,1.7-5.2,3.7-9.1,5.4c-5.1,2.2-9.8,2.9-13,3.2c-1-0.5-2.1-1-3.1-1.5l10-4.8
	l10-4.8C62.8,69.3,64.5,70.2,66.3,71z"/>
<path id="XMLID_270_" class="st1" d="M16.1,70.9c1.7-0.8,3.4-1.6,5.1-2.4l10,4.8l10,4.8c-1,0.5-2,1-3.1,1.5
	c-3.4-0.3-8.4-1.1-13.8-3.6C20.8,74.4,18.1,72.6,16.1,70.9z"/>
<path id="XMLID_269_" class="st2" d="M11.1,14c1.1-1.3,2.1-2.2,2.5-2.6c1-0.9,1.9-1.7,2.8-2.4c1.6,0.7,3.2,1.4,4.8,2.1l-10,4.8
	c-0.9,0.4-1.7,0.8-2.6,1.2C9.5,15.9,10.3,14.9,11.1,14z"/>
<path id="XMLID_268_" class="st2" d="M10.7,65.7c1.1,1.3,2.1,2.2,2.7,2.8c1,1,2,1.8,2.7,2.4c1.7-0.8,3.4-1.6,5.1-2.4
	c-3.3-1.6-6.7-3.2-10-4.8c-1.1-0.5-2.1-1-3.2-1.5C8.9,63.7,9.9,64.8,10.7,65.7z"/>
<polygon id="XMLID_267_" class="st2" points="41.1,68.5 41.1,58.9 51.1,63.7 61.1,68.5 51.1,73.3 41.1,78.1 "/>
<polygon id="XMLID_266_" class="st2" points="41.1,68.5 41.1,78.1 31.1,73.3 21.1,68.5 31.1,63.7 41.1,58.9 "/>
<path id="XMLID_265_" class="st2" d="M71.5,65.8c-1.8,2.1-3.6,3.8-5.3,5.1c-1.8-0.8-3.5-1.6-5.3-2.4l10-4.8c1.2-0.6,2.4-1.1,3.6-1.7
	C73.6,63.2,72.6,64.5,71.5,65.8z"/>
<polygon id="XMLID_264_" class="st1" points="61.1,58.9 61.1,68.5 51.1,63.7 41.1,58.9 51.1,54.1 61.1,49.4 "/>
<polygon id="XMLID_263_" class="st1" points="21.1,58.9 21.1,49.4 31.1,54.1 41.1,58.9 31.1,63.7 21.1,68.5 "/>
<polygon id="XMLID_262_" class="st1" points="21.1,20.7 21.1,11.1 31.1,15.9 41.1,20.7 31.1,25.5 21.1,30.2 "/>
<path id="XMLID_261_" class="st1" d="M61.1,20.7v-9.6l10,4.8c0.9,0.4,1.7,0.8,2.6,1.3c0.5,0.8,1.1,1.6,1.7,2.5c0.6,1,1.2,2.1,1.7,3
	c-2,0.9-4,1.9-5.9,2.8c-3.3,1.6-6.7,3.2-10,4.8V20.7z"/>
<path id="XMLID_260_" class="st1" d="M61.1,58.9v-9.6l10,4.8c2.1,1,4.1,2,6.2,3c-0.4,0.8-0.8,1.7-1.4,2.7c-0.5,0.8-1,1.6-1.4,2.2
	c-4.5,2.2-8.9,4.3-13.4,6.5V58.9z"/>
<path id="XMLID_259_" class="st3" d="M39.1,0.6c0.7,0,1.4-0.1,2.2-0.1c0.7,0,1.3,0,1.9,0.1c-0.7,0.3-1.4,0.6-2,1
	C40.4,1.2,39.8,0.9,39.1,0.6z"/>
<path id="XMLID_258_" class="st3" d="M44.2,79.6c-1,0.1-2,0.1-3.1,0.1c-1.1,0-2.1-0.1-3.1-0.2c1-0.5,2.1-1,3.1-1.5
	C42.2,78.6,43.2,79.1,44.2,79.6z"/>
<polygon id="XMLID_257_" class="st0" points="21.1,39.8 21.1,49.4 11.1,44.6 1.1,39.8 11.1,35 21.1,30.2 "/>
<polygon id="XMLID_256_" class="st0" points="21.1,39.8 21.1,30.2 31.1,35 41.1,39.8 31.1,44.6 21.1,49.4 "/>
<polygon id="XMLID_255_" class="st0" points="61.1,39.8 61.1,30.2 71.1,35 81.1,39.8 71.1,44.6 61.1,49.4 "/>
<polygon id="XMLID_254_" class="st2" points="41.1,30.2 41.1,20.6 51.1,25.4 61.1,30.2 51.1,35 41.1,39.8 "/>
<path id="XMLID_253_" class="st2" d="M2.2,49.1c-0.9-3.6-1.1-6.8-1.1-9.3l10,4.8l10,4.8l-10,4.8c-2,1-4.1,2-6.1,2.9
	C4,55,3,52.3,2.2,49.1z"/>
<path id="XMLID_252_" class="st2" d="M2.4,30.4c0.8-3.1,1.9-5.7,2.9-7.8c2,0.9,3.9,1.9,5.9,2.8l10,4.8l-10,4.8l-10,4.8
	C1.2,37.3,1.4,34.1,2.4,30.4z"/>
<polygon id="XMLID_251_" class="st2" points="41.1,30.2 41.1,39.8 31.1,35 21.1,30.2 31.1,25.4 41.1,20.6 "/>
<path id="XMLID_250_" class="st2" d="M79.9,30.2c1,3.8,1.2,7.1,1.2,9.6l-10-4.8l-10-4.8l10-4.8c2-0.9,4-1.9,5.9-2.8
	C78,24.6,79.1,27.1,79.9,30.2z"/>
<path id="XMLID_249_" class="st2" d="M80,49.4c-0.8,3.1-1.8,5.8-2.8,7.8c-2.1-1-4.1-2-6.2-3l-10-4.8l10-4.8l10-4.8
	C81.1,42.3,80.9,45.6,80,49.4z"/>
<polygon id="XMLID_248_" class="st2" points="41.1,49.4 41.1,39.8 51.1,44.6 61.1,49.4 51.1,54.1 41.1,58.9 "/>
<polygon id="XMLID_247_" class="st2" points="41.1,49.4 41.1,58.9 31.1,54.1 21.1,49.4 31.1,44.6 41.1,39.8 "/>
<ellipse id="XMLID_246_" class="st4" cx="41.1" cy="40.1" rx="39.9" ry="39.5"/>
<g id="XMLID_282_">
	<path id="XMLID_292_" class="st5" d="M58.8,52.8c5.3-0.4,11-7.7,10.8-12.9l0-7.1l0-10l-5.9,7.3l0,10.3
		C63.8,44.2,62.7,48.1,58.8,52.8L58.8,52.8z"/>
	<g id="XMLID_283_">
		<path id="XMLID_291_" class="st5" d="M44.5,38.4c-1.5,1.9-2.9,3.7-4.4,5.6c0.2,7.3,4.8,13.4,10.7,15c7.7,2,17.2-3.9,18.8-14
			c-2.2,6.8-9.4,10.7-16.1,8.7C47.1,51.8,43.1,45.1,44.5,38.4z"/>
		<g id="XMLID_289_">
			<path id="XMLID_290_" class="st5" d="M17.1,37.9c-0.1-0.8-0.7-8.3,4.9-13.1c3.2-2.7,6.7-3.2,8.2-3.4l7.1,0c3.5,0,7,0,10.4,0
				c-1.5,1.9-3,3.8-4.5,5.7c-4.5,0.1-9.1,0.1-13.6,0.2c-1.9,0-2.7,0.1-3.8,0.4C21,29.1,18.4,34.5,17.1,37.9z"/>
		</g>
		<g id="XMLID_284_">
			<g id="XMLID_287_">
				<path id="XMLID_288_" class="st5" d="M16.7,54.4c0-0.4-0.1-0.9-0.1-1.6c0-2.3-0.1-6.9,2.4-10.3c3.2-4.2,9.1-4.3,10-4.3
					c1.3,0,2.6,0,3.9,0c3.5,0,7,0,10.4,0c-1.5,1.9-3,3.7-4.5,5.6c-5.3,0-9.2,0-10.8,0c-0.3,0-1.1,0-1.9,0.4
					c-0.8,0.3-1.3,0.7-1.6,0.9c0,0-3.8,2.9-3.8,10.7c0,0.1,0,0.8,0,1.7c0,0.5,0,0.9,0,1.4c0,0.8-0.1,0.8-0.1,1.4c0,0.3,0,0.5,0,0.5
					C20.5,60.9,19.6,59.5,16.7,54.4z"/>
			</g>
			<g id="XMLID_285_">
				<path id="XMLID_286_" class="st5" d="M24.7,39.2c-0.2,0.2-0.9,1.1-1,2.4c-0.1,1.5,0.8,2.6,0.9,2.8c-0.5,0.7-1.2,1.8-1.7,3.3
					c-0.6,1.7-0.7,3.2-0.7,4.2c0,3.5,0,6.9,0,10.4c-1.9-1.5-3.8-3-5.7-4.5c-0.1-1.2-0.2-3.1-0.1-5.4C16.8,48,17,44.5,19.4,42
					C20.1,41.2,21.7,39.8,24.7,39.2z"/>
			</g>
		</g>
	</g>
</g>
<path id="XMLID_217_" class="st0" d="M98.8,47.6V29.1c0-3.2,0.8-5.5,2.4-7c1.6-1.5,4-2.3,7.3-2.3h4.9v6.5h-4.8c-2,0-2.9,0.9-2.9,2.8
	V31h7.7v6.5h-7.7v10.1H98.8L98.8,47.6z M283.9,19.9h6.9v17.4c0,3.1-0.8,5.6-2.4,7.5c-1.8,2.2-4.4,3.3-7.9,3.3
	c-2.4,0-4.6-0.9-6.5-2.6c-2.1-1.9-3.2-4.4-3.2-7.4c0-0.3,0-0.6,0.1-1c0-0.3,0.1-0.7,0.3-1.2l6.4,1.7c0,2.5,1,3.7,3.1,3.7
	c1.1,0,1.9-0.4,2.4-1.1c0.5-0.8,0.8-1.9,0.8-3.5V19.9L283.9,19.9z M117,47.6V31.2c0-3.6,1-6.5,2.9-8.6c1.9-2.1,4.5-3.2,7.6-3.2
	c3.2,0,5.7,1.1,7.7,3.2c2,2.1,2.9,5,2.9,8.7v16.4h-6.9v-7.2h-7.4v7.2H117L117,47.6z M127.5,26.1c-2.5,0-3.7,1.6-3.7,4.7v3.1h7.4
	v-3.4c0-1.3-0.3-2.4-1-3.2C129.6,26.5,128.7,26.1,127.5,26.1L127.5,26.1z M141.7,19.9H159V26h-10.4v11.7c0,1.1,0.3,2,0.9,2.7
	c0.6,0.7,1.3,1,2.2,1c1.1,0,1.9-0.3,2.5-1c0.5-0.6,0.7-1.4,0.7-2.3c0-0.9-0.3-1.7-0.9-2.3c-0.6-0.6-1.3-1-2.1-1
	c-0.5,0-0.9,0.1-1.3,0.2c-0.3,0.1-0.6,0.3-0.7,0.5l1.3-7.4c3.2,0,5.7,1,7.7,2.9c2,1.9,2.9,4.3,2.9,7.2c0,2.7-1,5-2.9,6.9
	c-1.9,1.9-4.2,2.9-7,2.9c-3.1,0-5.5-1-7.4-3c-1.9-2-2.8-4.5-2.8-7.4V19.9L141.7,19.9z M164.5,47.6V29.8c0-3,0.9-5.5,2.8-7.4
	c1.8-2,4.3-3,7.4-3c2.7,0,5,1,6.9,2.9s2.9,4.2,2.9,6.9c0,2.9-1,5.3-2.9,7.2c-2,1.9-4.5,2.9-7.7,2.9l-1.3-7.4
	c0.2,0.2,0.4,0.4,0.7,0.5c0.3,0.1,0.7,0.2,1.3,0.2c0.8,0,1.6-0.3,2.1-0.9c0.6-0.6,0.9-1.4,0.9-2.4c0-1-0.2-1.8-0.7-2.3
	c-0.5-0.7-1.4-1-2.5-1c-0.8,0-1.5,0.3-2.2,1c-0.6,0.7-0.9,1.6-0.9,2.7v17.9H164.5L164.5,47.6z M187.3,19.9h6.9v16.8
	c0,3.1,1.2,4.7,3.7,4.7c1.2,0,2.1-0.4,2.8-1.2c0.6-0.8,1-2,1-3.5V19.9h6.8v27.7h-6.8v-1.8c-0.3,0.6-0.9,1.2-1.8,1.6
	c-0.8,0.4-1.8,0.7-2.9,0.7c-2.6,0-4.8-1-6.6-3c-2-2.2-3-5.1-3-8.8V19.9L187.3,19.9z M212.3,19.8h6.9v11.1l7.4-11.1h7.5l-8,11.1
	c1.8,0,3.3,0.6,4.5,1.9c1,1.1,1.5,2.5,1.5,4v10.8h-6.8v-9.4c0-0.9-0.3-1.8-0.8-2.4c-0.6-0.7-1.3-1-2.3-1c-0.9,0-1.6,0.3-2.1,0.9
	c-0.5,0.6-0.8,1.4-0.8,2.4v9.4h-6.9V19.8L212.3,19.8z M236,47.6V31.2c0-3.6,1-6.5,2.9-8.6c1.9-2.1,4.5-3.2,7.6-3.2s5.7,1.1,7.7,3.2
	c2,2.1,2.9,5,2.9,8.7v16.4h-6.9v-7.2h-7.4v7.2H236L236,47.6z M246.5,26.1c-2.5,0-3.7,1.6-3.7,4.7v3.1h7.4v-3.4c0-1.3-0.3-2.4-1-3.2
	C248.6,26.5,247.7,26.1,246.5,26.1L246.5,26.1z M294.5,47.6V31.2c0-3.6,1-6.5,2.9-8.6c1.9-2.1,4.5-3.2,7.6-3.2
	c3.2,0,5.7,1.1,7.7,3.2c2,2.1,2.9,5,2.9,8.7v16.4h-6.9v-7.2h-7.4v7.2H294.5L294.5,47.6z M305,26.1c-2.5,0-3.7,1.6-3.7,4.7v3.1h7.4
	v-3.4c0-1.3-0.3-2.4-1-3.2C307.1,26.5,306.2,26.1,305,26.1L305,26.1z M343.1,31.2v16.4h-6.8V30.8c0-3.1-1.2-4.7-3.7-4.7
	c-2.5,0-3.7,1.6-3.7,4.7v9c0,2.7-0.5,4.7-1.5,5.9c-1.1,1.3-3.1,1.9-5.9,1.9h-3.1v-5.5c1.3,0,2.2-0.3,2.8-0.8c0.6-0.6,0.9-1.5,0.9-3
	v-7.1c0-3.6,1-6.5,2.9-8.6c1.9-2.1,4.5-3.2,7.6-3.2c3.1,0,5.7,1.1,7.6,3.2C342.1,24.7,343.1,27.6,343.1,31.2L343.1,31.2z
	 M353.3,30.5h3.5c0.7-3.2,2.4-5.9,5-8c2.6-2.1,5.6-3.2,8.9-3.2c4,0,7.3,1.4,10.1,4.2c2.8,2.8,4.1,6.2,4.1,10.1c0,4-1.4,7.4-4.1,10.2
	c-2.7,2.8-6.1,4.2-10.1,4.2c-3.2,0-6.1-1-8.7-3c-2.6-2-4.3-4.6-5.1-7.8h-3.6v10.4h-6.9V19.9h6.9V30.5L353.3,30.5z M363.6,33.6
	c0,2.1,0.7,3.9,2.1,5.3c1.4,1.5,3.1,2.2,5.1,2.2c2,0,3.7-0.7,5.1-2.2c1.4-1.5,2.1-3.2,2.1-5.3c0-2.1-0.7-3.8-2.1-5.3
	c-1.4-1.5-3.1-2.2-5.1-2.2c-2,0-3.7,0.7-5.1,2.2C364.2,29.8,363.6,31.5,363.6,33.6L363.6,33.6z M390.7,19.9l6.8,0
	c1.8,0,3.4,0.6,4.9,1.9c1.5,1.3,2.2,2.7,2.2,4.2c0,1.4-0.2,2.6-0.6,3.4c-0.4,0.8-1,1.5-1.9,1.9c1.4,1.1,2.3,2.1,2.8,3.2
	c0.5,1.1,0.7,2.5,0.7,4.4c0,2.4-0.8,4.4-2.3,6.1c-1.8,2-4.3,3-7.5,3c-2.5,0-4.6-0.6-6.2-1.7c-0.9-0.6-1.8-1.6-2.7-2.9l4.5-4.4
	c1.4,1.8,2.9,2.8,4.4,2.8c0.9,0,1.7-0.2,2.2-0.7c0.5-0.5,0.8-1.2,0.8-2.2c0-1-0.3-1.7-0.9-2.2c-0.6-0.5-1.4-0.7-2.6-0.7h-2.3v-5.3
	h2.2c0.9,0,1.6-0.2,2-0.7c0.4-0.5,0.7-1.1,0.7-1.8c0-0.7-0.3-1.2-0.8-1.7c-0.5-0.4-1.2-0.7-2.2-0.7h-4.2V19.9L390.7,19.9z
	 M408.7,19.9h6.9v16.8c0,3.1,1.2,4.7,3.7,4.7c1.2,0,2.1-0.4,2.8-1.2c0.6-0.8,1-2,1-3.5V19.9h6.8v27.7H423v-1.8
	c-0.3,0.6-0.9,1.2-1.8,1.6c-0.8,0.4-1.8,0.7-2.9,0.7c-2.6,0-4.8-1-6.6-3c-2-2.2-3-5.1-3-8.8V19.9z"/>
<line id="XMLID_216_" class="st6" x1="88.8" y1="0" x2="88.8" y2="80.2"/>
<text id="XMLID_215_" transform="matrix(1 0 0 1 98.157 58.7309)" style="fill:#50ADD6; font-family:'Taurus-Normal'; font-size:10px;">Производственная компания</text>
<path id="XMLID_152_" class="st7" d="M197.7,68.9"/>
<g id="XMLID_235_">
	<path id="XMLID_245_" class="st8" d="M56.9,50.8c5.3-0.4,11-7.7,10.8-12.9l0-7.1l0-10l-5.9,7.3l0,10.3
		C61.8,42.2,60.8,46.2,56.9,50.8L56.9,50.8z"/>
	<g id="XMLID_236_">
		<path id="XMLID_244_" class="st8" d="M42.5,36.4c-1.5,1.9-2.9,3.7-4.4,5.6c0.2,7.3,4.8,13.4,10.7,15c7.7,2,17.2-3.9,18.8-14
			c-2.2,6.8-9.4,10.7-16.1,8.7C45.2,49.8,41.1,43.1,42.5,36.4z"/>
		<g id="XMLID_242_">
			<path id="XMLID_243_" class="st8" d="M15.2,35.9c-0.1-0.8-0.7-8.3,4.9-13.1c3.2-2.7,6.7-3.2,8.2-3.4l7.1,0c3.5,0,7,0,10.4,0
				c-1.5,1.9-3,3.8-4.5,5.7c-4.5,0.1-9.1,0.1-13.6,0.2c-1.9,0-2.7,0.1-3.8,0.4C19,27.1,16.4,32.5,15.2,35.9z"/>
		</g>
		<g id="XMLID_237_">
			<g id="XMLID_240_">
				<path id="XMLID_241_" class="st8" d="M14.7,52.4c0-0.4-0.1-0.9-0.1-1.6c0-2.3-0.1-6.9,2.4-10.3c3.2-4.2,9.1-4.3,10-4.3
					c1.3,0,2.6,0,3.9,0c3.5,0,7,0,10.4,0c-1.5,1.9-3,3.7-4.5,5.6c-5.3,0-9.2,0-10.8,0c-0.3,0-1.1,0-1.9,0.4
					c-0.8,0.3-1.3,0.7-1.6,0.9c0,0-3.8,2.9-3.8,10.7c0,0.1,0,0.8,0,1.7c0,0.5,0,0.9,0,1.4c0,0.8-0.1,0.8-0.1,1.4c0,0.3,0,0.5,0,0.5
					C18.5,58.9,17.6,57.5,14.7,52.4z"/>
			</g>
			<g id="XMLID_238_">
				<path id="XMLID_239_" class="st8" d="M22.7,37.2c-0.2,0.2-0.9,1.1-1,2.4c-0.1,1.5,0.8,2.6,0.9,2.8c-0.5,0.7-1.2,1.8-1.7,3.3
					c-0.6,1.7-0.7,3.2-0.7,4.2c0,3.5,0,6.9,0,10.4c-1.9-1.5-3.8-3-5.7-4.5c-0.1-1.2-0.2-3.1-0.1-5.4c0.3-4.4,0.5-7.8,2.9-10.4
					C18.2,39.2,19.7,37.9,22.7,37.2z"/>
			</g>
		</g>
	</g>
</g>
</svg>
