<?xml version="1.0" encoding="utf-8"?>
<!-- Generator: Adobe Illustrator 19.0.1, SVG Export Plug-In . SVG Version: 6.00 Build 0)  -->
<svg version="1.1" id="Слой_1" xmlns="http://www.w3.org/2000/svg" xmlns:xlink="http://www.w3.org/1999/xlink" x="0px" y="0px"
	 viewBox="0 0 431.2 86" style="enable-background:new 0 0 431.2 86;" xml:space="preserve">
<style type="text/css">
	.st0{fill-rule:evenodd;clip-rule:evenodd;fill:#50ADD6;}
	.st1{fill-rule:evenodd;clip-rule:evenodd;fill:#6BBEE0;}
	.st2{fill-rule:evenodd;clip-rule:evenodd;fill:#77C3E8;}
	.st3{fill-rule:evenodd;clip-rule:evenodd;fill:#79BCDD;}
	.st4{fill-rule:evenodd;clip-rule:evenodd;fill:none;stroke:#4D59A1;stroke-width:0.1;stroke-miterlimit:10;}
	.st5{fill-rule:evenodd;clip-rule:evenodd;fill:#456A7E;}
	.st6{fill:#50ADD6;stroke:#50ADD6;stroke-miterlimit:10;}
	.st7{fill:#50ADD6;}
	.st8{font-family:'Taurus-Normal';}
	.st9{font-size:10px;}
	.st10{fill-rule:evenodd;clip-rule:evenodd;fill:#D76349;}
	.st11{fill-rule:evenodd;clip-rule:evenodd;fill:#FAFCFE;}
</style>
<polygon id="XMLID_281_" class="st0" points="62.3,42.3 62.3,51.8 52.3,47.1 42.3,42.3 52.3,37.5 62.3,32.7 "/>
<polygon id="XMLID_280_" class="st1" points="62.3,23.1 62.3,32.7 52.3,27.9 42.3,23.1 52.3,18.4 62.3,13.6 "/>
<path id="XMLID_279_" class="st1" d="M22.3,23.1v9.6l-10-4.8c-2-0.9-3.9-1.9-5.9-2.8c0.4-0.9,0.9-1.8,1.5-2.7c0.6-1,1.2-2,1.9-2.8
	c0.5-0.2,2-1,2.5-1.2c3.3-1.6,6.7-3.2,10-4.8V23.1z"/>
<path id="XMLID_278_" class="st1" d="M22.3,61.4V71l-10-4.8c-1.1-0.5-2.1-1-3.2-1.5c-0.5-0.7-1-1.5-1.4-2.3c-0.6-1-1.1-1.9-1.5-2.9
	c2-1,4.1-2,6.1-2.9l10-4.8V61.4z"/>
<polygon id="XMLID_277_" class="st2" points="42.3,13.6 42.3,23.1 32.3,18.4 22.3,13.6 32.3,8.8 42.3,4 "/>
<path id="XMLID_276_" class="st1" d="M22.3,8.3c0,1.8,0,3.5,0,5.3c-1.6-0.7-3.2-1.4-4.8-2.1c0.7-0.6,1.5-1.1,2.3-1.7
	C20.7,9.3,21.5,8.7,22.3,8.3z"/>
<path id="XMLID_275_" class="st2" d="M71.5,15.5c1.3,1.4,2.5,2.8,3.4,4.1c-0.9-0.4-1.8-0.8-2.7-1.3l-10-4.8c1.5-0.7,3.1-1.5,4.6-2.2
	C68.3,12.5,69.9,13.8,71.5,15.5z"/>
<path id="XMLID_274_" class="st1" d="M62.3,13.6l-10-4.8L42.3,4c0.7-0.3,1.3-0.6,2-1c2.9,0.1,7.2,0.7,11.9,2.4
	c4.8,1.8,8.4,4.1,10.7,5.9C65.4,12.1,63.8,12.8,62.3,13.6z"/>
<polygon id="XMLID_273_" class="st2" points="42.3,13.6 42.3,4 52.3,8.8 62.3,13.6 52.3,18.4 42.3,23.1 "/>
<path id="XMLID_272_" class="st1" d="M22.3,8.3c2.1-1.2,4.8-2.4,8-3.4c3.9-1.2,7.3-1.7,10-1.8c0.7,0.3,1.3,0.6,2,1l-10,4.8l-10,4.8
	C22.3,11.8,22.3,10.1,22.3,8.3z"/>
<path id="XMLID_271_" class="st1" d="M67.4,73.5c-2.2,1.7-5.2,3.7-9.1,5.4c-5.1,2.2-9.8,2.9-13,3.2c-1-0.5-2.1-1-3.1-1.5l10-4.8
	l10-4.8C64,71.8,65.7,72.6,67.4,73.5z"/>
<path id="XMLID_270_" class="st1" d="M17.2,73.4c1.7-0.8,3.4-1.6,5.1-2.4l10,4.8l10,4.8c-1,0.5-2,1-3.1,1.5
	c-3.4-0.3-8.4-1.1-13.8-3.6C22,76.9,19.3,75,17.2,73.4z"/>
<path id="XMLID_269_" class="st2" d="M12.2,16.5c1.1-1.3,2.1-2.2,2.5-2.6c1-0.9,1.9-1.7,2.8-2.4c1.6,0.7,3.2,1.4,4.8,2.1l-10,4.8
	c-0.9,0.4-1.7,0.8-2.6,1.2C10.6,18.4,11.5,17.3,12.2,16.5z"/>
<path id="XMLID_268_" class="st2" d="M11.8,68.2c1.1,1.3,2.1,2.2,2.7,2.8c1,1,2,1.8,2.7,2.4c1.7-0.8,3.4-1.6,5.1-2.4
	c-3.3-1.6-6.7-3.2-10-4.8c-1.1-0.5-2.1-1-3.2-1.5C10.1,66.1,11.1,67.3,11.8,68.2z"/>
<polygon id="XMLID_267_" class="st2" points="42.3,71 42.3,61.4 52.3,66.2 62.3,71 52.3,75.8 42.3,80.6 "/>
<polygon id="XMLID_266_" class="st2" points="42.3,71 42.3,80.6 32.3,75.8 22.3,71 32.3,66.2 42.3,61.4 "/>
<path id="XMLID_265_" class="st2" d="M72.6,68.3c-1.8,2.1-3.6,3.8-5.3,5.1c-1.8-0.8-3.5-1.6-5.3-2.4l10-4.8c1.2-0.6,2.4-1.1,3.6-1.7
	C74.8,65.7,73.8,67,72.6,68.3z"/>
<polygon id="XMLID_264_" class="st1" points="62.3,61.4 62.3,71 52.3,66.2 42.3,61.4 52.3,56.6 62.3,51.8 "/>
<polygon id="XMLID_263_" class="st1" points="22.3,61.4 22.3,51.8 32.3,56.6 42.3,61.4 32.3,66.2 22.3,71 "/>
<polygon id="XMLID_262_" class="st1" points="22.3,23.1 22.3,13.6 32.3,18.4 42.3,23.1 32.3,27.9 22.3,32.7 "/>
<path id="XMLID_261_" class="st1" d="M62.3,23.1v-9.6l10,4.8c0.9,0.4,1.7,0.8,2.6,1.3c0.5,0.8,1.1,1.6,1.7,2.5c0.6,1,1.2,2.1,1.7,3
	c-2,0.9-4,1.9-5.9,2.8c-3.3,1.6-6.7,3.2-10,4.8V23.1z"/>
<path id="XMLID_260_" class="st1" d="M62.3,61.4v-9.6l10,4.8c2.1,1,4.1,2,6.2,3c-0.4,0.8-0.8,1.7-1.4,2.7c-0.5,0.8-1,1.6-1.4,2.2
	c-4.5,2.2-8.9,4.3-13.4,6.5V61.4z"/>
<path id="XMLID_259_" class="st3" d="M40.3,3C40.9,3,41.7,3,42.4,3c0.7,0,1.3,0,1.9,0.1c-0.7,0.3-1.4,0.6-2,1
	C41.6,3.7,40.9,3.4,40.3,3z"/>
<path id="XMLID_258_" class="st3" d="M45.4,82.1c-1,0.1-2,0.1-3.1,0.1c-1.1,0-2.1-0.1-3.1-0.2c1-0.5,2.1-1,3.1-1.5
	C43.3,81.1,44.4,81.6,45.4,82.1z"/>
<polygon id="XMLID_257_" class="st0" points="22.3,42.3 22.3,51.8 12.3,47.1 2.3,42.3 12.3,37.5 22.3,32.7 "/>
<polygon id="XMLID_256_" class="st0" points="22.3,42.3 22.3,32.7 32.3,37.5 42.3,42.3 32.3,47.1 22.3,51.8 "/>
<polygon id="XMLID_255_" class="st0" points="62.3,42.3 62.3,32.7 72.3,37.5 82.2,42.3 72.3,47.1 62.3,51.8 "/>
<polygon id="XMLID_254_" class="st2" points="42.3,32.7 42.3,23.1 52.3,27.9 62.3,32.7 52.3,37.5 42.3,42.3 "/>
<path id="XMLID_253_" class="st2" d="M3.4,51.6c-0.9-3.6-1.1-6.8-1.1-9.3l10,4.8l10,4.8l-10,4.8c-2,1-4.1,2-6.1,2.9
	C5.2,57.5,4.1,54.8,3.4,51.6z"/>
<path id="XMLID_252_" class="st2" d="M3.5,32.9c0.8-3.1,1.9-5.7,2.9-7.8c2,0.9,3.9,1.9,5.9,2.8l10,4.8l-10,4.8l-10,4.8
	C2.3,39.8,2.6,36.5,3.5,32.9z"/>
<polygon id="XMLID_251_" class="st2" points="42.3,32.7 42.3,42.3 32.3,37.5 22.3,32.7 32.3,27.9 42.3,23.1 "/>
<path id="XMLID_250_" class="st2" d="M81,32.7c1,3.8,1.2,7.1,1.2,9.6l-10-4.8l-10-4.8l10-4.8c2-0.9,4-1.9,5.9-2.8
	C79.2,27.1,80.2,29.6,81,32.7z"/>
<path id="XMLID_249_" class="st2" d="M81.2,51.8c-0.8,3.1-1.8,5.8-2.8,7.8c-2.1-1-4.1-2-6.2-3l-10-4.8l10-4.8l10-4.8
	C82.3,44.8,82.1,48.1,81.2,51.8z"/>
<polygon id="XMLID_248_" class="st2" points="42.3,51.8 42.3,42.3 52.3,47.1 62.3,51.8 52.3,56.6 42.3,61.4 "/>
<polygon id="XMLID_247_" class="st2" points="42.3,51.8 42.3,61.4 32.3,56.6 22.3,51.8 32.3,47.1 42.3,42.3 "/>
<ellipse id="XMLID_246_" class="st4" cx="42.3" cy="42.6" rx="39.9" ry="39.5"/>
<g id="XMLID_282_">
	<path id="XMLID_292_" class="st5" d="M60,55.2c5.3-0.4,11-7.7,10.8-12.9l0-7.1l0-10L65,32.6l0,10.3C65,46.6,63.9,50.6,60,55.2
		L60,55.2z"/>
	<g id="XMLID_283_">
		<path id="XMLID_291_" class="st5" d="M45.6,40.9c-1.5,1.9-2.9,3.7-4.4,5.6c0.2,7.3,4.8,13.4,10.7,15c7.7,2,17.2-3.9,18.8-14
			c-2.2,6.8-9.4,10.7-16.1,8.7C48.3,54.3,44.3,47.6,45.6,40.9z"/>
		<g id="XMLID_289_">
			<path id="XMLID_290_" class="st5" d="M18.3,40.4c-0.1-0.8-0.7-8.3,4.9-13.1c3.2-2.7,6.7-3.2,8.2-3.4l7.1,0c3.5,0,7,0,10.4,0
				c-1.5,1.9-3,3.8-4.5,5.7c-4.5,0.1-9.1,0.1-13.6,0.2c-1.9,0-2.7,0.1-3.8,0.4C22.2,31.6,19.6,36.9,18.3,40.4z"/>
		</g>
		<g id="XMLID_284_">
			<g id="XMLID_287_">
				<path id="XMLID_288_" class="st5" d="M17.9,56.9c0-0.4-0.1-0.9-0.1-1.6c0-2.3-0.1-6.9,2.4-10.3c3.2-4.2,9.1-4.3,10-4.3
					c1.3,0,2.6,0,3.9,0c3.5,0,7,0,10.4,0c-1.5,1.9-3,3.7-4.5,5.6c-5.3,0-9.2,0-10.8,0c-0.3,0-1.1,0-1.9,0.4
					c-0.8,0.3-1.3,0.7-1.6,0.9c0,0-3.8,2.9-3.8,10.7c0,0.1,0,0.8,0,1.7c0,0.5,0,0.9,0,1.4c0,0.8-0.1,0.8-0.1,1.4c0,0.3,0,0.5,0,0.5
					C21.6,63.4,20.7,61.9,17.9,56.9z"/>
			</g>
			<g id="XMLID_285_">
				<path id="XMLID_286_" class="st5" d="M25.8,41.7c-0.2,0.2-0.9,1.1-1,2.4c-0.1,1.5,0.8,2.6,0.9,2.8c-0.5,0.7-1.2,1.8-1.7,3.3
					c-0.6,1.7-0.7,3.2-0.7,4.2c0,3.5,0,6.9,0,10.4c-1.9-1.5-3.8-3-5.7-4.5c-0.1-1.2-0.2-3.1-0.1-5.4c0.3-4.4,0.5-7.8,2.9-10.4
					C21.3,43.7,22.9,42.3,25.8,41.7z"/>
			</g>
		</g>
	</g>
</g>
<path id="XMLID_217_" class="st0" d="M100,50.1V31.6c0-3.2,0.8-5.5,2.4-7c1.6-1.5,4-2.3,7.3-2.3h4.9v6.5h-4.8c-2,0-2.9,0.9-2.9,2.8
	v1.8h7.7v6.5h-7.7v10.1H100L100,50.1z M285,22.3h6.9v17.4c0,3.1-0.8,5.6-2.4,7.5c-1.8,2.2-4.4,3.3-7.9,3.3c-2.4,0-4.6-0.9-6.5-2.6
	c-2.1-1.9-3.2-4.4-3.2-7.4c0-0.3,0-0.6,0.1-1c0-0.3,0.1-0.7,0.3-1.2l6.4,1.7c0,2.5,1,3.7,3.1,3.7c1.1,0,1.9-0.4,2.4-1.1
	c0.5-0.8,0.8-1.9,0.8-3.5V22.3L285,22.3z M118.1,50.1V33.7c0-3.6,1-6.5,2.9-8.6c1.9-2.1,4.5-3.2,7.6-3.2c3.2,0,5.7,1.1,7.7,3.2
	c2,2.1,2.9,5,2.9,8.7v16.4h-6.9v-7.2H125v7.2H118.1L118.1,50.1z M128.7,28.6c-2.5,0-3.7,1.6-3.7,4.7v3.1h7.4V33c0-1.3-0.3-2.4-1-3.2
	C130.8,29,129.8,28.6,128.7,28.6L128.7,28.6z M142.9,22.3h17.3v6.1h-10.4v11.7c0,1.1,0.3,2,0.9,2.7c0.6,0.7,1.3,1,2.2,1
	c1.1,0,1.9-0.3,2.5-1c0.5-0.6,0.7-1.4,0.7-2.3c0-0.9-0.3-1.7-0.9-2.3c-0.6-0.6-1.3-1-2.1-1c-0.5,0-0.9,0.1-1.3,0.2
	c-0.3,0.1-0.6,0.3-0.7,0.5l1.3-7.4c3.2,0,5.7,1,7.7,2.9c2,1.9,2.9,4.3,2.9,7.2c0,2.7-1,5-2.9,6.9c-1.9,1.9-4.2,2.9-7,2.9
	c-3.1,0-5.5-1-7.4-3c-1.9-2-2.8-4.5-2.8-7.4V22.3L142.9,22.3z M165.7,50.1V32.2c0-3,0.9-5.5,2.8-7.4c1.8-2,4.3-3,7.4-3
	c2.7,0,5,1,6.9,2.9c2,1.9,2.9,4.2,2.9,6.9c0,2.9-1,5.3-2.9,7.2c-2,1.9-4.5,2.9-7.7,2.9l-1.3-7.4c0.2,0.2,0.4,0.4,0.7,0.5
	c0.3,0.1,0.7,0.2,1.3,0.2c0.8,0,1.6-0.3,2.1-0.9c0.6-0.6,0.9-1.4,0.9-2.4c0-1-0.2-1.8-0.7-2.3c-0.5-0.7-1.4-1-2.5-1
	c-0.8,0-1.5,0.3-2.2,1c-0.6,0.7-0.9,1.6-0.9,2.7v17.9H165.7L165.7,50.1z M188.4,22.3h6.9v16.8c0,3.1,1.2,4.7,3.7,4.7
	c1.2,0,2.1-0.4,2.8-1.2c0.6-0.8,1-2,1-3.5V22.3h6.8v27.7h-6.8v-1.8c-0.3,0.6-0.9,1.2-1.8,1.6c-0.8,0.4-1.8,0.7-2.9,0.7
	c-2.6,0-4.8-1-6.6-3c-2-2.2-3-5.1-3-8.8V22.3L188.4,22.3z M213.5,22.3h6.9v11.1l7.4-11.1h7.5l-8,11.1c1.8,0,3.3,0.6,4.5,1.9
	c1,1.1,1.5,2.5,1.5,4v10.8h-6.8v-9.4c0-0.9-0.3-1.8-0.8-2.4c-0.6-0.7-1.3-1-2.3-1c-0.9,0-1.6,0.3-2.1,0.9c-0.5,0.6-0.8,1.4-0.8,2.4
	v9.4h-6.9V22.3L213.5,22.3z M237.1,50.1V33.7c0-3.6,1-6.5,2.9-8.6c1.9-2.1,4.5-3.2,7.6-3.2c3.2,0,5.7,1.1,7.7,3.2
	c2,2.1,2.9,5,2.9,8.7v16.4h-6.9v-7.2H244v7.2H237.1L237.1,50.1z M247.7,28.6c-2.5,0-3.7,1.6-3.7,4.7v3.1h7.4V33c0-1.3-0.3-2.4-1-3.2
	C249.8,29,248.8,28.6,247.7,28.6L247.7,28.6z M295.6,50.1V33.7c0-3.6,1-6.5,2.9-8.6c1.9-2.1,4.5-3.2,7.6-3.2c3.2,0,5.7,1.1,7.7,3.2
	c2,2.1,2.9,5,2.9,8.7v16.4h-6.9v-7.2h-7.4v7.2H295.6L295.6,50.1z M306.2,28.6c-2.5,0-3.7,1.6-3.7,4.7v3.1h7.4V33
	c0-1.3-0.3-2.4-1-3.2C308.3,29,307.3,28.6,306.2,28.6L306.2,28.6z M344.2,33.7v16.4h-6.8V33.3c0-3.1-1.2-4.7-3.7-4.7
	c-2.5,0-3.7,1.6-3.7,4.7v9c0,2.7-0.5,4.7-1.5,5.9c-1.1,1.3-3.1,1.9-5.9,1.9h-3.1v-5.5c1.3,0,2.2-0.3,2.8-0.8c0.6-0.6,0.9-1.5,0.9-3
	v-7.1c0-3.6,1-6.5,2.9-8.6c1.9-2.1,4.5-3.2,7.6-3.2c3.1,0,5.7,1.1,7.6,3.2C343.3,27.2,344.2,30.1,344.2,33.7L344.2,33.7z M354.5,33
	h3.5c0.7-3.2,2.4-5.9,5-8c2.6-2.1,5.6-3.2,8.9-3.2c4,0,7.3,1.4,10.1,4.2c2.8,2.8,4.1,6.2,4.1,10.1c0,4-1.4,7.4-4.1,10.2
	c-2.7,2.8-6.1,4.2-10.1,4.2c-3.2,0-6.1-1-8.7-3c-2.6-2-4.3-4.6-5.1-7.8h-3.6v10.4h-6.9V22.3h6.9V33L354.5,33z M364.7,36.1
	c0,2.1,0.7,3.9,2.1,5.3c1.4,1.5,3.1,2.2,5.1,2.2c2,0,3.7-0.7,5.1-2.2c1.4-1.5,2.1-3.2,2.1-5.3c0-2.1-0.7-3.8-2.1-5.3
	c-1.4-1.5-3.1-2.2-5.1-2.2c-2,0-3.7,0.7-5.1,2.2C365.4,32.3,364.7,34,364.7,36.1L364.7,36.1z M391.9,22.3l6.8,0
	c1.8,0,3.4,0.6,4.9,1.9c1.5,1.3,2.2,2.7,2.2,4.2c0,1.4-0.2,2.6-0.6,3.4c-0.4,0.8-1,1.5-1.9,1.9c1.4,1.1,2.3,2.1,2.8,3.2
	c0.5,1.1,0.7,2.5,0.7,4.4c0,2.4-0.8,4.4-2.3,6.1c-1.8,2-4.3,3-7.5,3c-2.5,0-4.6-0.6-6.2-1.7c-0.9-0.6-1.8-1.6-2.7-2.9l4.5-4.4
	c1.4,1.8,2.9,2.8,4.4,2.8c0.9,0,1.7-0.2,2.2-0.7c0.5-0.5,0.8-1.2,0.8-2.2c0-1-0.3-1.7-0.9-2.2c-0.6-0.5-1.4-0.7-2.6-0.7h-2.3v-5.3
	h2.2c0.9,0,1.6-0.2,2-0.7c0.4-0.5,0.7-1.1,0.7-1.8c0-0.7-0.3-1.2-0.8-1.7c-0.5-0.4-1.2-0.7-2.2-0.7h-4.2V22.3L391.9,22.3z
	 M409.9,22.3h6.9v16.8c0,3.1,1.2,4.7,3.7,4.7c1.2,0,2.1-0.4,2.8-1.2c0.6-0.8,1-2,1-3.5V22.3h6.8v27.7h-6.8v-1.8
	c-0.3,0.6-0.9,1.2-1.8,1.6c-0.8,0.4-1.8,0.7-2.9,0.7c-2.6,0-4.8-1-6.6-3c-2-2.2-3-5.1-3-8.8V22.3z"/>
<line id="XMLID_216_" class="st6" x1="90" y1="2.5" x2="90" y2="82.7"/>
<text id="XMLID_215_" transform="matrix(1 0 0 1 99.3236 61.2146)" class="st7 st8 st9">Производственная компания</text>
<path id="XMLID_152_" class="st10" d="M198.8,71.3"/>
<g id="XMLID_235_">
	<path id="XMLID_245_" class="st11" d="M58,53.3c5.3-0.4,11-7.7,10.8-12.9l0-7.1l0-10L63,30.6l0,10.3C63,44.7,61.9,48.6,58,53.3
		L58,53.3z"/>
	<g id="XMLID_236_">
		<path id="XMLID_244_" class="st11" d="M43.7,38.9c-1.5,1.9-2.9,3.7-4.4,5.6c0.2,7.3,4.8,13.4,10.7,15c7.7,2,17.2-3.9,18.8-14
			c-2.2,6.8-9.4,10.7-16.1,8.7C46.3,52.3,42.3,45.6,43.7,38.9z"/>
		<g id="XMLID_242_">
			<path id="XMLID_243_" class="st11" d="M16.3,38.4c-0.1-0.8-0.7-8.3,4.9-13.1c3.2-2.7,6.7-3.2,8.2-3.4l7.1,0c3.5,0,7,0,10.4,0
				c-1.5,1.9-3,3.8-4.5,5.7c-4.5,0.1-9.1,0.1-13.6,0.2c-1.9,0-2.7,0.1-3.8,0.4C20.2,29.6,17.6,35,16.3,38.4z"/>
		</g>
		<g id="XMLID_237_">
			<g id="XMLID_240_">
				<path id="XMLID_241_" class="st11" d="M15.9,54.9c0-0.4-0.1-0.9-0.1-1.6c0-2.3-0.1-6.9,2.4-10.3c3.2-4.2,9.1-4.3,10-4.3
					c1.3,0,2.6,0,3.9,0c3.5,0,7,0,10.4,0c-1.5,1.9-3,3.7-4.5,5.6c-5.3,0-9.2,0-10.8,0c-0.3,0-1.1,0-1.9,0.4
					c-0.8,0.3-1.3,0.7-1.6,0.9c0,0-3.8,2.9-3.8,10.7c0,0.1,0,0.8,0,1.7c0,0.5,0,0.9,0,1.4c0,0.8-0.1,0.8-0.1,1.4c0,0.3,0,0.5,0,0.5
					C19.7,61.4,18.8,60,15.9,54.9z"/>
			</g>
			<g id="XMLID_238_">
				<path id="XMLID_239_" class="st11" d="M23.9,39.7c-0.2,0.2-0.9,1.1-1,2.4c-0.1,1.5,0.8,2.6,0.9,2.8c-0.5,0.7-1.2,1.8-1.7,3.3
					c-0.6,1.7-0.7,3.2-0.7,4.2c0,3.5,0,6.9,0,10.4c-1.9-1.5-3.8-3-5.7-4.5c-0.1-1.2-0.2-3.1-0.1-5.4c0.3-4.4,0.5-7.8,2.9-10.4
					C19.3,41.7,20.9,40.3,23.9,39.7z"/>
			</g>
		</g>
	</g>
</g>
</svg>
