<?xml version="1.0" encoding="utf-8"?>
<!-- Generator: Adobe Illustrator 19.0.1, SVG Export Plug-In . SVG Version: 6.00 Build 0)  -->
<svg version="1.1" id="Слой_1" xmlns="http://www.w3.org/2000/svg" xmlns:xlink="http://www.w3.org/1999/xlink" x="0px" y="0px"
	 viewBox="0 0 431.2 80.2" style="enable-background:new 0 0 431.2 80.2;" xml:space="preserve">
<style type="text/css">
	.st0{fill-rule:evenodd;clip-rule:evenodd;fill:#50ADD6;}
	.st1{fill-rule:evenodd;clip-rule:evenodd;fill:#6BBEE0;}
	.st2{fill-rule:evenodd;clip-rule:evenodd;fill:#77C3E8;}
	.st3{fill-rule:evenodd;clip-rule:evenodd;fill:#79BCDD;}
	.st4{fill-rule:evenodd;clip-rule:evenodd;fill:none;stroke:#4D59A1;stroke-width:0.1;stroke-miterlimit:10;}
	.st5{fill-rule:evenodd;clip-rule:evenodd;fill:#456A7E;}
	.st6{fill-rule:evenodd;clip-rule:evenodd;fill:#FAFCFE;}
	.st7{fill:#FAFCFE;}
	.st8{fill-rule:evenodd;clip-rule:evenodd;fill:#D76349;}
</style>
<polygon id="XMLID_93_" class="st0" points="62.3,39.8 62.3,49.4 52.3,44.6 42.3,39.8 52.3,35 62.3,30.2 "/>
<polygon id="XMLID_92_" class="st1" points="62.3,20.7 62.3,30.2 52.3,25.5 42.3,20.7 52.3,15.9 62.3,11.1 "/>
<path id="XMLID_91_" class="st1" d="M22.4,20.7v9.6l-10-4.8c-2-0.9-3.9-1.9-5.9-2.8c0.4-0.9,0.9-1.8,1.5-2.7c0.6-1,1.2-2,1.9-2.8
	c0.5-0.2,2-1,2.5-1.2c3.3-1.6,6.7-3.2,10-4.8V20.7z"/>
<path id="XMLID_90_" class="st1" d="M22.4,58.9v9.6l-10-4.8c-1.1-0.5-2.1-1-3.2-1.5c-0.5-0.7-1-1.5-1.4-2.3c-0.6-1-1.1-1.9-1.5-2.9
	c2-1,4.1-2,6.1-2.9l10-4.8V58.9z"/>
<polygon id="XMLID_89_" class="st2" points="42.3,11.1 42.3,20.7 32.4,15.9 22.4,11.1 32.4,6.3 42.3,1.5 "/>
<path id="XMLID_88_" class="st1" d="M22.4,5.8c0,1.8,0,3.5,0,5.3c-1.6-0.7-3.2-1.4-4.8-2.1c0.7-0.6,1.5-1.1,2.3-1.7
	C20.7,6.8,21.6,6.3,22.4,5.8z"/>
<path id="XMLID_87_" class="st2" d="M71.6,13.1c1.3,1.4,2.5,2.8,3.4,4.1c-0.9-0.4-1.8-0.8-2.7-1.3l-10-4.8c1.5-0.7,3.1-1.5,4.6-2.2
	C68.4,10,70,11.4,71.6,13.1z"/>
<path id="XMLID_86_" class="st1" d="M62.3,11.1l-10-4.8l-10-4.8c0.7-0.3,1.3-0.6,2-1c2.9,0.1,7.2,0.7,11.9,2.4
	c4.8,1.8,8.4,4.1,10.7,5.9C65.4,9.6,63.9,10.4,62.3,11.1z"/>
<polygon id="XMLID_85_" class="st2" points="42.3,11.1 42.3,1.5 52.3,6.3 62.3,11.1 52.3,15.9 42.3,20.7 "/>
<path id="XMLID_84_" class="st1" d="M22.4,5.8c2.1-1.2,4.8-2.4,8-3.4c3.9-1.2,7.3-1.7,10-1.8c0.7,0.3,1.3,0.6,2,1l-10,4.8l-10,4.8
	C22.4,9.3,22.4,7.6,22.4,5.8z"/>
<path id="XMLID_83_" class="st1" d="M67.5,71c-2.2,1.7-5.2,3.7-9.1,5.4c-5.1,2.2-9.8,2.9-13,3.2c-1-0.5-2.1-1-3.1-1.5l10-4.8l10-4.8
	C64.1,69.3,65.8,70.2,67.5,71z"/>
<path id="XMLID_82_" class="st1" d="M17.3,70.9c1.7-0.8,3.4-1.6,5.1-2.4l10,4.8l10,4.8c-1,0.5-2,1-3.1,1.5
	c-3.4-0.3-8.4-1.1-13.8-3.6C22,74.4,19.3,72.6,17.3,70.9z"/>
<path id="XMLID_81_" class="st2" d="M12.3,14c1.1-1.3,2.1-2.2,2.5-2.6c1-0.9,1.9-1.7,2.8-2.4c1.6,0.7,3.2,1.4,4.8,2.1l-10,4.8
	c-0.9,0.4-1.7,0.8-2.6,1.2C10.7,15.9,11.6,14.9,12.3,14z"/>
<path id="XMLID_80_" class="st2" d="M11.9,65.7c1.1,1.3,2.1,2.2,2.7,2.8c1,1,2,1.8,2.7,2.4c1.7-0.8,3.4-1.6,5.1-2.4
	c-3.3-1.6-6.7-3.2-10-4.8c-1.1-0.5-2.1-1-3.2-1.5C10.2,63.7,11.1,64.8,11.9,65.7z"/>
<polygon id="XMLID_79_" class="st2" points="42.3,68.5 42.3,58.9 52.3,63.7 62.3,68.5 52.3,73.3 42.3,78.1 "/>
<polygon id="XMLID_78_" class="st2" points="42.3,68.5 42.3,78.1 32.4,73.3 22.4,68.5 32.4,63.7 42.3,58.9 "/>
<path id="XMLID_77_" class="st2" d="M72.7,65.8c-1.8,2.1-3.6,3.8-5.3,5.1c-1.8-0.8-3.5-1.6-5.3-2.4l10-4.8c1.2-0.6,2.4-1.1,3.6-1.7
	C74.8,63.2,73.9,64.5,72.7,65.8z"/>
<polygon id="XMLID_76_" class="st1" points="62.3,58.9 62.3,68.5 52.3,63.7 42.3,58.9 52.3,54.1 62.3,49.4 "/>
<polygon id="XMLID_75_" class="st1" points="22.4,58.9 22.4,49.4 32.4,54.1 42.3,58.9 32.4,63.7 22.4,68.5 "/>
<polygon id="XMLID_74_" class="st1" points="22.4,20.7 22.4,11.1 32.4,15.9 42.3,20.7 32.4,25.5 22.4,30.2 "/>
<path id="XMLID_73_" class="st1" d="M62.3,20.7v-9.6l10,4.8c0.9,0.4,1.7,0.8,2.6,1.3c0.5,0.8,1.1,1.6,1.7,2.5c0.6,1,1.2,2.1,1.7,3
	c-2,0.9-4,1.9-5.9,2.8c-3.3,1.6-6.7,3.2-10,4.8V20.7z"/>
<path id="XMLID_72_" class="st1" d="M62.3,58.9v-9.6l10,4.8c2.1,1,4.1,2,6.2,3c-0.4,0.8-0.8,1.7-1.4,2.7c-0.5,0.8-1,1.6-1.4,2.2
	c-4.5,2.2-8.9,4.3-13.4,6.5V58.9z"/>
<path id="XMLID_71_" class="st3" d="M40.3,0.6c0.7,0,1.4-0.1,2.2-0.1c0.7,0,1.3,0,1.9,0.1c-0.7,0.3-1.4,0.6-2,1
	C41.7,1.2,41,0.9,40.3,0.6z"/>
<path id="XMLID_70_" class="st3" d="M45.5,79.6c-1,0.1-2,0.1-3.1,0.1c-1.1,0-2.1-0.1-3.1-0.2c1-0.5,2.1-1,3.1-1.5
	C43.4,78.6,44.4,79.1,45.5,79.6z"/>
<polygon id="XMLID_69_" class="st0" points="22.4,39.8 22.4,49.4 12.4,44.6 2.4,39.8 12.4,35 22.4,30.2 "/>
<polygon id="XMLID_68_" class="st0" points="22.4,39.8 22.4,30.2 32.4,35 42.3,39.8 32.4,44.6 22.4,49.4 "/>
<polygon id="XMLID_67_" class="st0" points="62.3,39.8 62.3,30.2 72.3,35 82.3,39.8 72.3,44.6 62.3,49.4 "/>
<polygon id="XMLID_66_" class="st2" points="42.3,30.2 42.3,20.6 52.3,25.4 62.3,30.2 52.3,35 42.3,39.8 "/>
<path id="XMLID_65_" class="st2" d="M3.4,49.1c-0.9-3.6-1.1-6.8-1.1-9.3l10,4.8l10,4.8l-10,4.8c-2,1-4.1,2-6.1,2.9
	C5.3,55,4.2,52.3,3.4,49.1z"/>
<path id="XMLID_64_" class="st2" d="M3.6,30.4c0.8-3.1,1.9-5.7,2.9-7.8c2,0.9,3.9,1.9,5.9,2.8l10,4.8l-10,4.8l-10,4.8
	C2.4,37.3,2.7,34.1,3.6,30.4z"/>
<polygon id="XMLID_63_" class="st2" points="42.3,30.2 42.3,39.8 32.4,35 22.4,30.2 32.4,25.4 42.3,20.6 "/>
<path id="XMLID_62_" class="st2" d="M81.1,30.2c1,3.8,1.2,7.1,1.2,9.6l-10-4.8l-10-4.8l10-4.8c2-0.9,4-1.9,5.9-2.8
	C79.2,24.6,80.3,27.1,81.1,30.2z"/>
<path id="XMLID_61_" class="st2" d="M81.3,49.4c-0.8,3.1-1.8,5.8-2.8,7.8c-2.1-1-4.1-2-6.2-3l-10-4.8l10-4.8l10-4.8
	C82.4,42.3,82.2,45.6,81.3,49.4z"/>
<polygon id="XMLID_60_" class="st2" points="42.3,49.4 42.3,39.8 52.3,44.6 62.3,49.4 52.3,54.1 42.3,58.9 "/>
<polygon id="XMLID_59_" class="st2" points="42.3,49.4 42.3,58.9 32.4,54.1 22.4,49.4 32.4,44.6 42.3,39.8 "/>
<ellipse id="XMLID_58_" class="st4" cx="42.4" cy="40.1" rx="39.9" ry="39.5"/>
<g id="XMLID_47_">
	<path id="XMLID_57_" class="st5" d="M60.1,52.8c5.3-0.4,11-7.7,10.8-12.9l0-7.1l0-10L65,30.1l0,10.3C65,44.2,64,48.1,60.1,52.8
		L60.1,52.8z"/>
	<g id="XMLID_48_">
		<path id="XMLID_56_" class="st5" d="M45.7,38.4c-1.5,1.9-2.9,3.7-4.4,5.6c0.2,7.3,4.8,13.4,10.7,15c7.7,2,17.2-3.9,18.8-14
			c-2.2,6.8-9.4,10.7-16.1,8.7C48.4,51.8,44.3,45.1,45.7,38.4z"/>
		<g id="XMLID_54_">
			<path id="XMLID_55_" class="st5" d="M18.4,37.9c-0.1-0.8-0.7-8.3,4.9-13.1c3.2-2.7,6.7-3.2,8.2-3.4l7.1,0c3.5,0,7,0,10.4,0
				c-1.5,1.9-3,3.8-4.5,5.7c-4.5,0.1-9.1,0.1-13.6,0.2c-1.9,0-2.7,0.1-3.8,0.4C22.2,29.1,19.6,34.5,18.4,37.9z"/>
		</g>
		<g id="XMLID_49_">
			<g id="XMLID_52_">
				<path id="XMLID_53_" class="st5" d="M17.9,54.4c0-0.4-0.1-0.9-0.1-1.6c0-2.3-0.1-6.9,2.4-10.3c3.2-4.2,9.1-4.3,10-4.3
					c1.3,0,2.6,0,3.9,0c3.5,0,7,0,10.4,0c-1.5,1.9-3,3.7-4.5,5.6c-5.3,0-9.2,0-10.8,0c-0.3,0-1.1,0-1.9,0.4
					c-0.8,0.3-1.3,0.7-1.6,0.9c0,0-3.8,2.9-3.8,10.7c0,0.1,0,0.8,0,1.7c0,0.5,0,0.9,0,1.4c0,0.8-0.1,0.8-0.1,1.4c0,0.3,0,0.5,0,0.5
					C21.7,60.9,20.8,59.5,17.9,54.4z"/>
			</g>
			<g id="XMLID_50_">
				<path id="XMLID_51_" class="st5" d="M25.9,39.2c-0.2,0.2-0.9,1.1-1,2.4c-0.1,1.5,0.8,2.6,0.9,2.8c-0.5,0.7-1.2,1.8-1.7,3.3
					c-0.6,1.7-0.7,3.2-0.7,4.2c0,3.5,0,6.9,0,10.4c-1.9-1.5-3.8-3-5.7-4.5c-0.1-1.2-0.2-3.1-0.1-5.4C18,48,18.3,44.5,20.7,42
					C21.4,41.2,22.9,39.8,25.9,39.2z"/>
			</g>
		</g>
	</g>
</g>
<path id="XMLID_29_" class="st6" d="M100.1,47.6V29.1c0-3.2,0.8-5.5,2.4-7c1.6-1.5,4-2.3,7.3-2.3h4.9v6.5h-4.8c-2,0-2.9,0.9-2.9,2.8
	V31h7.7v6.5H107v10.1H100.1L100.1,47.6z M285.1,19.9h6.9v17.4c0,3.1-0.8,5.6-2.4,7.5c-1.8,2.2-4.4,3.3-7.9,3.3
	c-2.4,0-4.6-0.9-6.5-2.6c-2.1-1.9-3.2-4.4-3.2-7.4c0-0.3,0-0.6,0.1-1c0-0.3,0.1-0.7,0.3-1.2l6.4,1.7c0,2.5,1,3.7,3.1,3.7
	c1.1,0,1.9-0.4,2.4-1.1c0.5-0.8,0.8-1.9,0.8-3.5V19.9L285.1,19.9z M118.2,47.6V31.2c0-3.6,1-6.5,2.9-8.6c1.9-2.1,4.5-3.2,7.6-3.2
	c3.2,0,5.7,1.1,7.7,3.2c2,2.1,2.9,5,2.9,8.7v16.4h-6.9v-7.2h-7.4v7.2H118.2L118.2,47.6z M128.8,26.1c-2.5,0-3.7,1.6-3.7,4.7v3.1h7.4
	v-3.4c0-1.3-0.3-2.4-1-3.2C130.8,26.5,129.9,26.1,128.8,26.1L128.8,26.1z M143,19.9h17.3V26h-10.4v11.7c0,1.1,0.3,2,0.9,2.7
	c0.6,0.7,1.3,1,2.2,1c1.1,0,1.9-0.3,2.5-1c0.5-0.6,0.7-1.4,0.7-2.3c0-0.9-0.3-1.7-0.9-2.3c-0.6-0.6-1.3-1-2.1-1
	c-0.5,0-0.9,0.1-1.3,0.2c-0.3,0.1-0.6,0.3-0.7,0.5l1.3-7.4c3.2,0,5.7,1,7.7,2.9c2,1.9,2.9,4.3,2.9,7.2c0,2.7-1,5-2.9,6.9
	c-1.9,1.9-4.2,2.9-7,2.9c-3.1,0-5.5-1-7.4-3c-1.9-2-2.8-4.5-2.8-7.4V19.9L143,19.9z M165.7,47.6V29.8c0-3,0.9-5.5,2.8-7.4
	c1.8-2,4.3-3,7.4-3c2.7,0,5,1,6.9,2.9c2,1.9,2.9,4.2,2.9,6.9c0,2.9-1,5.3-2.9,7.2c-2,1.9-4.5,2.9-7.7,2.9l-1.3-7.4
	c0.2,0.2,0.4,0.4,0.7,0.5c0.3,0.1,0.7,0.2,1.3,0.2c0.8,0,1.6-0.3,2.1-0.9c0.6-0.6,0.9-1.4,0.9-2.4c0-1-0.2-1.8-0.7-2.3
	c-0.5-0.7-1.4-1-2.5-1c-0.8,0-1.5,0.3-2.2,1c-0.6,0.7-0.9,1.6-0.9,2.7v17.9H165.7L165.7,47.6z M188.5,19.9h6.9v16.8
	c0,3.1,1.2,4.7,3.7,4.7c1.2,0,2.1-0.4,2.8-1.2c0.6-0.8,1-2,1-3.5V19.9h6.8v27.7h-6.8v-1.8c-0.3,0.6-0.9,1.2-1.8,1.6
	c-0.8,0.4-1.8,0.7-2.9,0.7c-2.6,0-4.8-1-6.6-3c-2-2.2-3-5.1-3-8.8V19.9L188.5,19.9z M213.5,19.8h6.9v11.1l7.4-11.1h7.5l-8,11.1
	c1.8,0,3.3,0.6,4.5,1.9c1,1.1,1.5,2.5,1.5,4v10.8h-6.8v-9.4c0-0.9-0.3-1.8-0.8-2.4c-0.6-0.7-1.3-1-2.3-1c-0.9,0-1.6,0.3-2.1,0.9
	c-0.5,0.6-0.8,1.4-0.8,2.4v9.4h-6.9V19.8L213.5,19.8z M237.2,47.6V31.2c0-3.6,1-6.5,2.9-8.6c1.9-2.1,4.5-3.2,7.6-3.2
	c3.2,0,5.7,1.1,7.7,3.2c2,2.1,2.9,5,2.9,8.7v16.4h-6.9v-7.2h-7.4v7.2H237.2L237.2,47.6z M247.8,26.1c-2.5,0-3.7,1.6-3.7,4.7v3.1h7.4
	v-3.4c0-1.3-0.3-2.4-1-3.2C249.8,26.5,248.9,26.1,247.8,26.1L247.8,26.1z M295.7,47.6V31.2c0-3.6,1-6.5,2.9-8.6
	c1.9-2.1,4.5-3.2,7.6-3.2c3.2,0,5.7,1.1,7.7,3.2c2,2.1,2.9,5,2.9,8.7v16.4H310v-7.2h-7.4v7.2H295.7L295.7,47.6z M306.3,26.1
	c-2.5,0-3.7,1.6-3.7,4.7v3.1h7.4v-3.4c0-1.3-0.3-2.4-1-3.2C308.3,26.5,307.4,26.1,306.3,26.1L306.3,26.1z M344.3,31.2v16.4h-6.8
	V30.8c0-3.1-1.2-4.7-3.7-4.7c-2.5,0-3.7,1.6-3.7,4.7v9c0,2.7-0.5,4.7-1.5,5.9c-1.1,1.3-3.1,1.9-5.9,1.9h-3.1v-5.5
	c1.3,0,2.2-0.3,2.8-0.8c0.6-0.6,0.9-1.5,0.9-3v-7.1c0-3.6,1-6.5,2.9-8.6c1.9-2.1,4.5-3.2,7.6-3.2c3.1,0,5.7,1.1,7.6,3.2
	C343.3,24.7,344.3,27.6,344.3,31.2L344.3,31.2z M354.5,30.5h3.5c0.7-3.2,2.4-5.9,5-8c2.6-2.1,5.6-3.2,8.9-3.2c4,0,7.3,1.4,10.1,4.2
	c2.8,2.8,4.1,6.2,4.1,10.1c0,4-1.4,7.4-4.1,10.2c-2.7,2.8-6.1,4.2-10.1,4.2c-3.2,0-6.1-1-8.7-3c-2.6-2-4.3-4.6-5.1-7.8h-3.6v10.4
	h-6.9V19.9h6.9V30.5L354.5,30.5z M364.8,33.6c0,2.1,0.7,3.9,2.1,5.3c1.4,1.5,3.1,2.2,5.1,2.2c2,0,3.7-0.7,5.1-2.2
	c1.4-1.5,2.1-3.2,2.1-5.3c0-2.1-0.7-3.8-2.1-5.3c-1.4-1.5-3.1-2.2-5.1-2.2c-2,0-3.7,0.7-5.1,2.2C365.5,29.8,364.8,31.5,364.8,33.6
	L364.8,33.6z M392,19.9l6.8,0c1.8,0,3.4,0.6,4.9,1.9c1.5,1.3,2.2,2.7,2.2,4.2c0,1.4-0.2,2.6-0.6,3.4c-0.4,0.8-1,1.5-1.9,1.9
	c1.4,1.1,2.3,2.1,2.8,3.2c0.5,1.1,0.7,2.5,0.7,4.4c0,2.4-0.8,4.4-2.3,6.1c-1.8,2-4.3,3-7.5,3c-2.5,0-4.6-0.6-6.2-1.7
	c-0.9-0.6-1.8-1.6-2.7-2.9l4.5-4.4c1.4,1.8,2.9,2.8,4.4,2.8c0.9,0,1.7-0.2,2.2-0.7c0.5-0.5,0.8-1.2,0.8-2.2c0-1-0.3-1.7-0.9-2.2
	c-0.6-0.5-1.4-0.7-2.6-0.7h-2.3v-5.3h2.2c0.9,0,1.6-0.2,2-0.7c0.4-0.5,0.7-1.1,0.7-1.8c0-0.7-0.3-1.2-0.8-1.7
	c-0.5-0.4-1.2-0.7-2.2-0.7H392V19.9L392,19.9z M409.9,19.9h6.9v16.8c0,3.1,1.2,4.7,3.7,4.7c1.2,0,2.1-0.4,2.8-1.2c0.6-0.8,1-2,1-3.5
	V19.9h6.8v27.7h-6.8v-1.8c-0.3,0.6-0.9,1.2-1.8,1.6c-0.8,0.4-1.8,0.7-2.9,0.7c-2.6,0-4.8-1-6.6-3c-2-2.2-3-5.1-3-8.8V19.9z"/>
<line id="XMLID_28_" class="st7" x1="90.1" y1="0" x2="90.1" y2="80.2"/>
<g id="XMLID_1_">
	<path id="XMLID_2_" class="st7" d="M101,54.1v4.6h-1v-4.6c0-0.4,0.1-0.8,0.2-1.1s0.3-0.6,0.5-0.9c0.2-0.3,0.5-0.5,0.8-0.6
		c0.3-0.1,0.7-0.2,1.1-0.2c0.4,0,0.7,0.1,1,0.2c0.3,0.1,0.6,0.3,0.8,0.6c0.2,0.2,0.4,0.5,0.5,0.9c0.1,0.4,0.2,0.8,0.2,1.2v4.6h-1
		v-4.6c0-0.6-0.1-1.1-0.4-1.5c-0.3-0.3-0.7-0.5-1.2-0.5c-0.5,0-0.9,0.2-1.2,0.5C101.1,53,101,53.5,101,54.1z"/>
	<path id="XMLID_4_" class="st7" d="M107.2,56.2V61h-0.9v-4.4c0-0.3,0-0.6,0-0.9c0-0.2,0.1-0.5,0.2-0.8c0.2-0.4,0.5-0.8,0.9-1
		c0.4-0.2,0.8-0.4,1.3-0.4c0.4,0,0.7,0.1,1,0.2s0.6,0.3,0.8,0.6c0.2,0.2,0.4,0.5,0.5,0.8c0.1,0.3,0.2,0.7,0.2,1c0,0.4-0.1,0.7-0.2,1
		c-0.1,0.3-0.3,0.6-0.5,0.8c-0.2,0.2-0.5,0.4-0.8,0.6c-0.3,0.1-0.6,0.2-1,0.2s-0.7-0.1-1-0.2l-0.4-1.1c0.4,0.3,0.8,0.5,1.3,0.5
		c0.5,0,0.9-0.2,1.2-0.5s0.5-0.7,0.5-1.3c0-0.5-0.2-1-0.5-1.3c-0.3-0.3-0.7-0.5-1.2-0.5c-0.5,0-0.9,0.2-1.2,0.5
		C107.3,55.2,107.2,55.7,107.2,56.2z"/>
	<path id="XMLID_6_" class="st7" d="M114.5,53.6c0.4,0,0.7,0.1,1,0.2c0.3,0.1,0.6,0.3,0.8,0.6c0.2,0.2,0.4,0.5,0.6,0.8
		c0.1,0.3,0.2,0.6,0.2,1c0,0.4-0.1,0.7-0.2,1c-0.1,0.3-0.3,0.6-0.5,0.8c-0.2,0.2-0.5,0.4-0.8,0.6c-0.3,0.1-0.6,0.2-1,0.2
		c-0.4,0-0.7-0.1-1-0.2s-0.6-0.3-0.8-0.6c-0.2-0.2-0.4-0.5-0.5-0.8c-0.1-0.3-0.2-0.6-0.2-1s0.1-0.7,0.2-1s0.3-0.6,0.5-0.8
		c0.2-0.2,0.5-0.4,0.8-0.6C113.8,53.7,114.2,53.6,114.5,53.6z M114.5,54.4c-0.2,0-0.4,0-0.6,0.1c-0.2,0.1-0.4,0.2-0.5,0.4
		c-0.1,0.2-0.3,0.3-0.3,0.6c-0.1,0.2-0.1,0.4-0.1,0.7s0,0.4,0.1,0.7s0.2,0.4,0.3,0.6s0.3,0.3,0.5,0.4s0.4,0.1,0.7,0.1
		c0.2,0,0.4,0,0.6-0.1c0.2-0.1,0.4-0.2,0.5-0.4c0.1-0.2,0.3-0.3,0.3-0.6s0.1-0.4,0.1-0.7c0-0.2,0-0.5-0.1-0.7
		c-0.1-0.2-0.2-0.4-0.3-0.6c-0.1-0.2-0.3-0.3-0.5-0.4C114.9,54.5,114.7,54.4,114.5,54.4z"/>
	<path id="XMLID_9_" class="st7" d="M121.3,56.7v-3h0.9v5.1h-0.9v-0.4c-0.3,0.3-0.7,0.5-1.3,0.5c-0.7,0-1.2-0.2-1.6-0.6
		c-0.4-0.4-0.6-0.9-0.6-1.6v-2.9h0.9v2.9c0,0.4,0.1,0.7,0.3,0.9c0.2,0.3,0.5,0.4,0.9,0.4c0.4,0,0.7-0.1,0.9-0.4
		C121.2,57.3,121.3,57,121.3,56.7z"/>
	<path id="XMLID_11_" class="st7" d="M125.8,54.7h-1.5v-0.9h1.5c0.3,0,0.6,0,0.8,0.1c0.3,0.1,0.5,0.2,0.7,0.3
		c0.2,0.1,0.3,0.3,0.4,0.5c0.1,0.2,0.2,0.4,0.2,0.7c0,0.8-0.3,1.3-0.8,1.5c0.2,0,0.3,0.1,0.5,0.2s0.3,0.2,0.4,0.4
		c0.1,0.2,0.2,0.4,0.3,0.6s0.1,0.4,0.1,0.7c0,0.3,0,0.6-0.1,0.9c-0.1,0.3-0.3,0.6-0.5,0.8c-0.2,0.2-0.5,0.4-0.8,0.6
		c-0.3,0.1-0.7,0.2-1.2,0.2c-0.4,0-0.7-0.1-1-0.2c-0.3-0.1-0.6-0.3-0.8-0.6c-0.2-0.2-0.4-0.5-0.5-0.8c-0.1-0.3-0.2-0.6-0.2-1h0.9
		c0,0.3,0,0.5,0.1,0.7c0.1,0.2,0.2,0.4,0.4,0.5c0.1,0.2,0.3,0.3,0.5,0.3s0.4,0.1,0.6,0.1c0.5,0,0.9-0.1,1.2-0.4
		c0.3-0.3,0.5-0.7,0.5-1.2c0-0.2,0-0.4-0.1-0.5s-0.2-0.3-0.3-0.4c-0.1-0.1-0.3-0.2-0.5-0.3c-0.2-0.1-0.4-0.1-0.6-0.1
		c-0.1,0-0.3,0-0.5,0l0.3-0.9c0.9,0,1.3-0.3,1.3-0.9c0-0.3-0.1-0.5-0.3-0.7C126.4,54.8,126.1,54.7,125.8,54.7z"/>
	<path id="XMLID_13_" class="st7" d="M129.3,56.3v-5h2.6c0.4,0,0.6,0,0.9,0.1c0.2,0.1,0.4,0.2,0.6,0.4s0.3,0.3,0.3,0.5
		c0.1,0.2,0.1,0.4,0.1,0.5c0,0.3-0.1,0.6-0.2,0.8c-0.1,0.3-0.3,0.4-0.5,0.6c0.2,0,0.4,0.1,0.5,0.3s0.3,0.3,0.4,0.4
		c0.1,0.2,0.2,0.4,0.2,0.6c0,0.2,0.1,0.4,0.1,0.6c0,0.4-0.1,0.7-0.2,1.1c-0.1,0.3-0.3,0.6-0.5,0.8c-0.2,0.2-0.5,0.4-0.8,0.5
		c-0.3,0.1-0.6,0.2-1,0.2c-0.3,0-0.7-0.1-1-0.2s-0.6-0.3-0.8-0.5c-0.2-0.2-0.4-0.5-0.5-0.8C129.4,57,129.3,56.7,129.3,56.3z
		 M131.8,52.2h-1.6V56c0,0.6,0.1,1,0.4,1.4s0.7,0.6,1.2,0.6c0.3,0,0.5,0,0.7-0.1s0.4-0.2,0.5-0.4c0.1-0.2,0.2-0.4,0.3-0.6
		c0.1-0.2,0.1-0.4,0.1-0.7c0-0.2,0-0.4-0.1-0.6c-0.1-0.2-0.2-0.3-0.3-0.5c-0.1-0.1-0.3-0.3-0.5-0.3c-0.2-0.1-0.4-0.1-0.6-0.1
		c-0.2,0-0.5,0-0.7,0.1c-0.3,0.1-0.5,0.2-0.7,0.3l0.3-1c0.3-0.2,0.8-0.3,1.3-0.3c0.2,0,0.4-0.1,0.6-0.2c0.2-0.1,0.3-0.3,0.3-0.6
		C132.9,52.5,132.6,52.2,131.8,52.2z"/>
	<path id="XMLID_95_" class="st7" d="M137.8,53.6c0.4,0,0.7,0.1,1,0.2c0.3,0.1,0.6,0.3,0.8,0.6c0.2,0.2,0.4,0.5,0.6,0.8
		c0.1,0.3,0.2,0.6,0.2,1c0,0.4-0.1,0.7-0.2,1c-0.1,0.3-0.3,0.6-0.5,0.8c-0.2,0.2-0.5,0.4-0.8,0.6c-0.3,0.1-0.6,0.2-1,0.2
		c-0.4,0-0.7-0.1-1-0.2s-0.6-0.3-0.8-0.6c-0.2-0.2-0.4-0.5-0.5-0.8c-0.1-0.3-0.2-0.6-0.2-1s0.1-0.7,0.2-1s0.3-0.6,0.5-0.8
		c0.2-0.2,0.5-0.4,0.8-0.6C137.1,53.7,137.4,53.6,137.8,53.6z M137.8,54.4c-0.2,0-0.4,0-0.6,0.1c-0.2,0.1-0.4,0.2-0.5,0.4
		c-0.1,0.2-0.3,0.3-0.3,0.6c-0.1,0.2-0.1,0.4-0.1,0.7s0,0.4,0.1,0.7s0.2,0.4,0.3,0.6s0.3,0.3,0.5,0.4s0.4,0.1,0.7,0.1
		c0.2,0,0.4,0,0.6-0.1c0.2-0.1,0.4-0.2,0.5-0.4c0.1-0.2,0.3-0.3,0.3-0.6s0.1-0.4,0.1-0.7c0-0.2,0-0.5-0.1-0.7
		c-0.1-0.2-0.2-0.4-0.3-0.6c-0.1-0.2-0.3-0.3-0.5-0.4C138.2,54.5,138,54.4,137.8,54.4z"/>
	<path id="XMLID_98_" class="st7" d="M145.3,56.2v-2.4c0-0.6-0.1-1-0.4-1.2c-0.3-0.2-0.7-0.4-1.2-0.4c-0.2,0-0.3,0-0.5,0
		c-0.2,0-0.4,0.1-0.6,0.1c-0.2,0-0.4,0.1-0.6,0.1c-0.2,0.1-0.4,0.1-0.5,0.2l0.1-0.9c0.3-0.1,0.7-0.2,1.1-0.3s0.8-0.1,1.2-0.1
		c0.3,0,0.6,0,0.9,0.1c0.3,0.1,0.5,0.2,0.7,0.4c0.2,0.2,0.4,0.4,0.5,0.7c0.1,0.3,0.2,0.7,0.2,1.1l0,2c0,0.3,0,0.6,0,0.9
		c0,0.3-0.1,0.5-0.2,0.8c-0.2,0.4-0.5,0.8-0.9,1c-0.4,0.2-0.8,0.4-1.3,0.4c-0.4,0-0.7-0.1-1-0.2c-0.3-0.1-0.6-0.3-0.8-0.5
		s-0.4-0.5-0.5-0.8c-0.1-0.3-0.2-0.7-0.2-1c0-0.4,0.1-0.7,0.2-1.1c0.1-0.3,0.3-0.6,0.5-0.8c0.2-0.2,0.5-0.4,0.8-0.5
		c0.3-0.1,0.6-0.2,0.9-0.2c0.2,0,0.4,0,0.6,0.1c0.2,0,0.3,0.1,0.4,0.1l0.4,1.1c-0.4-0.3-0.8-0.5-1.3-0.5c-0.5,0-0.9,0.2-1.2,0.5
		c-0.3,0.3-0.5,0.8-0.5,1.3c0,0.5,0.2,0.9,0.5,1.3c0.3,0.3,0.7,0.5,1.2,0.5c0.5,0,0.9-0.2,1.2-0.5C145.2,57.2,145.3,56.7,145.3,56.2
		z"/>
	<path id="XMLID_100_" class="st7" d="M147,56.2c0-0.3,0.1-0.7,0.2-1c0.1-0.3,0.3-0.6,0.6-0.8c0.2-0.2,0.5-0.4,0.8-0.6
		c0.3-0.1,0.6-0.2,1-0.2c0.8,0,1.5,0.4,2.1,1.1l-0.7,0.6c-0.1-0.3-0.3-0.5-0.6-0.7c-0.3-0.2-0.5-0.2-0.8-0.2c-0.2,0-0.4,0-0.6,0.1
		c-0.2,0.1-0.4,0.2-0.5,0.4c-0.1,0.2-0.3,0.3-0.3,0.6c-0.1,0.2-0.1,0.4-0.1,0.7c0,0.2,0,0.5,0.1,0.7c0.1,0.2,0.2,0.4,0.3,0.6
		s0.3,0.3,0.5,0.4c0.2,0.1,0.4,0.1,0.6,0.1c0.3,0,0.6-0.1,0.9-0.3c0.2-0.2,0.4-0.4,0.6-0.7l0.7,0.6c-0.2,0.3-0.5,0.6-0.9,0.8
		c-0.4,0.2-0.8,0.3-1.2,0.3c-0.4,0-0.7-0.1-1-0.2s-0.6-0.3-0.8-0.6c-0.2-0.2-0.4-0.5-0.5-0.8S147,56.5,147,56.2z"/>
	<path id="XMLID_102_" class="st7" d="M154.5,53.6c0.6,0,1.2,0.3,1.6,0.8c0.4-0.5,0.9-0.8,1.5-0.8c0.6,0,1.1,0.2,1.5,0.6
		c0.3,0.4,0.5,0.9,0.5,1.6v2.9h-0.9v-3.1c0-0.3-0.1-0.6-0.3-0.9c-0.2-0.2-0.5-0.3-0.8-0.3c-0.3,0-0.6,0.1-0.8,0.3s-0.3,0.5-0.3,0.8
		v3.1h-0.9v-3.1c0-0.3-0.1-0.6-0.3-0.9c-0.2-0.2-0.5-0.3-0.8-0.3c-0.3,0-0.6,0.1-0.8,0.3c-0.2,0.2-0.3,0.5-0.3,0.9v3.1h-0.9v-2.9
		c0-0.6,0.2-1.2,0.5-1.6C153.3,53.8,153.8,53.6,154.5,53.6z"/>
	<path id="XMLID_104_" class="st7" d="M160.6,56.3v-5h2.6c0.4,0,0.6,0,0.9,0.1c0.2,0.1,0.4,0.2,0.6,0.4s0.3,0.3,0.3,0.5
		c0.1,0.2,0.1,0.4,0.1,0.5c0,0.3-0.1,0.6-0.2,0.8c-0.1,0.3-0.3,0.4-0.5,0.6c0.2,0,0.4,0.1,0.5,0.3s0.3,0.3,0.4,0.4
		c0.1,0.2,0.2,0.4,0.2,0.6c0,0.2,0.1,0.4,0.1,0.6c0,0.4-0.1,0.7-0.2,1.1c-0.1,0.3-0.3,0.6-0.5,0.8c-0.2,0.2-0.5,0.4-0.8,0.5
		c-0.3,0.1-0.6,0.2-1,0.2c-0.3,0-0.7-0.1-1-0.2s-0.6-0.3-0.8-0.5c-0.2-0.2-0.4-0.5-0.5-0.8C160.7,57,160.6,56.7,160.6,56.3z
		 M163.2,52.2h-1.6V56c0,0.6,0.1,1,0.4,1.4s0.7,0.6,1.2,0.6c0.3,0,0.5,0,0.7-0.1s0.4-0.2,0.5-0.4c0.1-0.2,0.2-0.4,0.3-0.6
		c0.1-0.2,0.1-0.4,0.1-0.7c0-0.2,0-0.4-0.1-0.6c-0.1-0.2-0.2-0.3-0.3-0.5c-0.1-0.1-0.3-0.3-0.5-0.3c-0.2-0.1-0.4-0.1-0.6-0.1
		c-0.2,0-0.5,0-0.7,0.1c-0.3,0.1-0.5,0.2-0.7,0.3l0.3-1c0.3-0.2,0.8-0.3,1.3-0.3c0.2,0,0.4-0.1,0.6-0.2c0.2-0.1,0.3-0.3,0.3-0.6
		C164.2,52.5,163.9,52.2,163.2,52.2z"/>
	<path id="XMLID_107_" class="st7" d="M166.5,56.2c0-0.3,0.1-0.7,0.2-1c0.1-0.3,0.3-0.6,0.6-0.8c0.2-0.2,0.5-0.4,0.8-0.6
		c0.3-0.1,0.6-0.2,1-0.2s0.7,0.1,1,0.2c0.3,0.1,0.6,0.3,0.8,0.6c0.2,0.2,0.4,0.5,0.6,0.8c0.1,0.3,0.2,0.6,0.2,1c0,0.1,0,0.3,0,0.4
		h-4.1c0.1,0.4,0.3,0.7,0.6,1c0.3,0.3,0.6,0.4,1,0.4c0.6,0,1-0.3,1.4-0.8l0.7,0.6c-0.2,0.3-0.5,0.6-0.9,0.7
		c-0.4,0.2-0.7,0.3-1.1,0.3c-0.4,0-0.7-0.1-1-0.2c-0.3-0.1-0.6-0.3-0.8-0.6c-0.2-0.2-0.4-0.5-0.5-0.8
		C166.6,56.9,166.5,56.5,166.5,56.2z M169.1,54.4c-0.4,0-0.7,0.1-1,0.4c-0.3,0.3-0.5,0.6-0.6,1h3.1c-0.1-0.4-0.3-0.7-0.5-1
		C169.8,54.6,169.4,54.4,169.1,54.4z"/>
	<path id="XMLID_110_" class="st7" d="M173.4,56.4v2.4h-0.9v-5.1h0.9v1.8h2.5v-1.8h0.9v5.1h-0.9v-2.4H173.4z"/>
	<path id="XMLID_112_" class="st7" d="M178.8,56.4v2.4h-0.9v-5.1h0.9v1.8h2.5v-1.8h0.9v5.1h-0.9v-2.4H178.8z"/>
	<path id="XMLID_114_" class="st7" d="M188.1,56.6v2.1h-0.9v-2.5c0-0.5-0.1-1-0.5-1.3c-0.3-0.3-0.7-0.5-1.2-0.5
		c-0.5,0-0.9,0.2-1.2,0.5c-0.3,0.3-0.5,0.7-0.5,1.3c0,0.3,0,0.5,0.1,0.7c0.1,0.2,0.2,0.4,0.3,0.6c0.2,0.2,0.3,0.3,0.5,0.4
		c0.2,0.1,0.4,0.1,0.7,0.1c0.4,0,0.9-0.2,1.3-0.5l-0.4,1.1c-0.3,0.1-0.6,0.2-1,0.2c-0.3,0-0.6-0.1-0.9-0.2c-0.3-0.1-0.6-0.3-0.8-0.5
		c-0.2-0.2-0.4-0.5-0.5-0.8c-0.1-0.3-0.2-0.7-0.2-1.1c0-0.4,0.1-0.7,0.2-1.1c0.1-0.3,0.3-0.6,0.5-0.8s0.5-0.4,0.8-0.5
		c0.3-0.1,0.6-0.2,1-0.2c0.5,0,0.9,0.1,1.3,0.4c0.4,0.2,0.7,0.6,0.9,1c0.1,0.1,0.1,0.3,0.2,0.4c0,0.1,0.1,0.3,0.1,0.4
		c0,0.1,0,0.3,0,0.4C188.1,56.3,188.1,56.4,188.1,56.6z"/>
	<path id="XMLID_116_" class="st7" d="M193,56.2v2.6h-0.9v-3.1c0-0.2,0-0.3-0.1-0.5c-0.1-0.1-0.2-0.3-0.3-0.4
		c-0.1-0.1-0.2-0.2-0.4-0.2c-0.1-0.1-0.3-0.1-0.4-0.1c-0.3,0-0.6,0.1-0.8,0.3c-0.2,0.2-0.3,0.5-0.3,0.8c0,0.3,0.1,0.6,0.3,0.8
		s0.5,0.3,0.8,0.3c0.3,0,0.6-0.1,0.9-0.4l-0.3,1.1c-0.1,0-0.1,0.1-0.2,0.1l-1.2,1.2l-0.6-0.7l0.7-0.7c-0.4-0.2-0.6-0.4-0.9-0.7
		s-0.3-0.7-0.3-1.1c0-0.3,0.1-0.5,0.2-0.8c0.1-0.2,0.2-0.5,0.4-0.6c0.2-0.2,0.4-0.3,0.6-0.4s0.5-0.2,0.8-0.2c0.9,0,1.5,0.4,1.9,1.2
		C192.9,55,193,55.5,193,56.2z"/>
	<path id="XMLID_118_" class="st7" d="M198.3,58.7h-0.9v-5.1h0.9v2l2.1-2h1.1l-1.9,1.8c0.2,0,0.4,0,0.6,0.1c0.2,0.1,0.4,0.2,0.5,0.4
		c0.1,0.2,0.3,0.3,0.3,0.5c0.1,0.2,0.1,0.4,0.1,0.6v1.6h-0.9v-1.5c0-0.3-0.1-0.6-0.3-0.8c-0.2-0.2-0.5-0.3-0.8-0.3
		c-0.2,0-0.4,0.1-0.6,0.2s-0.3,0.3-0.3,0.6V58.7z"/>
	<path id="XMLID_120_" class="st7" d="M204.6,53.6c0.4,0,0.7,0.1,1,0.2c0.3,0.1,0.6,0.3,0.8,0.6c0.2,0.2,0.4,0.5,0.6,0.8
		c0.1,0.3,0.2,0.6,0.2,1c0,0.4-0.1,0.7-0.2,1c-0.1,0.3-0.3,0.6-0.5,0.8c-0.2,0.2-0.5,0.4-0.8,0.6c-0.3,0.1-0.6,0.2-1,0.2
		c-0.4,0-0.7-0.1-1-0.2s-0.6-0.3-0.8-0.6c-0.2-0.2-0.4-0.5-0.5-0.8c-0.1-0.3-0.2-0.6-0.2-1s0.1-0.7,0.2-1s0.3-0.6,0.5-0.8
		c0.2-0.2,0.5-0.4,0.8-0.6C203.9,53.7,204.3,53.6,204.6,53.6z M204.6,54.4c-0.2,0-0.4,0-0.6,0.1c-0.2,0.1-0.4,0.2-0.5,0.4
		c-0.1,0.2-0.3,0.3-0.3,0.6c-0.1,0.2-0.1,0.4-0.1,0.7s0,0.4,0.1,0.7s0.2,0.4,0.3,0.6s0.3,0.3,0.5,0.4s0.4,0.1,0.7,0.1
		c0.2,0,0.4,0,0.6-0.1c0.2-0.1,0.4-0.2,0.5-0.4c0.1-0.2,0.3-0.3,0.3-0.6s0.1-0.4,0.1-0.7c0-0.2,0-0.5-0.1-0.7
		c-0.1-0.2-0.2-0.4-0.3-0.6c-0.1-0.2-0.3-0.3-0.5-0.4C205,54.5,204.8,54.4,204.6,54.4z"/>
	<path id="XMLID_123_" class="st7" d="M212.3,53.6c0.4,0,0.6,0.2,0.7,0.6l0.9,4.6h-0.9l-0.7-4l-0.9,3.2c-0.1,0.5-0.4,0.8-0.7,0.8
		c-0.2,0-0.3-0.1-0.4-0.2c-0.1-0.1-0.2-0.3-0.3-0.6l-0.9-3.2l-0.7,4h-0.9l0.9-4.6c0.1-0.4,0.3-0.6,0.7-0.6c0.3,0,0.6,0.2,0.7,0.6
		l0.9,3.2l0.9-3.2C211.7,53.8,212,53.6,212.3,53.6z"/>
	<path id="XMLID_125_" class="st7" d="M215.3,55.8v2.9h-0.9V56c0-0.4,0.1-0.7,0.2-1c0.1-0.3,0.3-0.5,0.4-0.8
		c0.2-0.2,0.4-0.4,0.7-0.5c0.3-0.1,0.6-0.2,0.9-0.2c0.6,0,1.2,0.2,1.5,0.6c0.4,0.4,0.6,1,0.6,1.8v2.8h-0.9v-2.9c0-0.4-0.1-0.7-0.4-1
		c-0.2-0.3-0.5-0.4-0.9-0.4c-0.4,0-0.7,0.1-0.9,0.4C215.4,55.1,215.3,55.4,215.3,55.8z"/>
	<path id="XMLID_127_" class="st7" d="M224.6,56.6v2.1h-0.9v-2.5c0-0.5-0.2-1-0.5-1.3c-0.3-0.3-0.7-0.5-1.2-0.5s-0.9,0.2-1.2,0.5
		c-0.3,0.3-0.5,0.7-0.5,1.3c0,0.3,0,0.5,0.1,0.7c0.1,0.2,0.2,0.4,0.3,0.6c0.2,0.2,0.3,0.3,0.5,0.4s0.4,0.1,0.7,0.1
		c0.4,0,0.9-0.2,1.3-0.5l-0.4,1.1c-0.3,0.1-0.6,0.2-1,0.2c-0.3,0-0.6-0.1-0.9-0.2s-0.6-0.3-0.8-0.5c-0.2-0.2-0.4-0.5-0.5-0.8
		s-0.2-0.7-0.2-1.1c0-0.4,0.1-0.7,0.2-1.1c0.1-0.3,0.3-0.6,0.5-0.8s0.5-0.4,0.8-0.5c0.3-0.1,0.6-0.2,1-0.2c0.5,0,0.9,0.1,1.3,0.4
		c0.4,0.2,0.7,0.6,0.9,1c0.1,0.1,0.1,0.3,0.2,0.4c0,0.1,0.1,0.3,0.1,0.4c0,0.1,0,0.3,0,0.4C224.6,56.3,224.6,56.4,224.6,56.6z"/>
	<path id="XMLID_129_" class="st7" d="M226.6,56.4v2.4h-0.9v-5.1h0.9v1.8h2.5v-1.8h0.9v5.1h-0.9v-2.4H226.6z"/>
	<path id="XMLID_131_" class="st7" d="M234.5,56.7v-3h0.9v5.1h-0.9v-0.4c-0.3,0.3-0.7,0.5-1.3,0.5c-0.7,0-1.2-0.2-1.6-0.6
		c-0.4-0.4-0.5-0.9-0.5-1.6v-2.9h0.9v2.9c0,0.4,0.1,0.7,0.3,0.9c0.2,0.3,0.5,0.4,0.9,0.4c0.4,0,0.7-0.1,0.9-0.4
		C234.4,57.3,234.5,57,234.5,56.7z"/>
	<path id="XMLID_133_" class="st7" d="M240.3,56.2v2.6h-0.9v-3.1c0-0.2,0-0.3-0.1-0.5c-0.1-0.1-0.2-0.3-0.3-0.4
		c-0.1-0.1-0.2-0.2-0.4-0.2c-0.1-0.1-0.3-0.1-0.4-0.1c-0.3,0-0.6,0.1-0.8,0.3c-0.2,0.2-0.3,0.5-0.3,0.8c0,0.3,0.1,0.6,0.3,0.8
		c0.2,0.2,0.5,0.3,0.8,0.3c0.3,0,0.6-0.1,0.8-0.4l-0.3,1.1c-0.1,0-0.1,0.1-0.2,0.1l-1.2,1.2l-0.7-0.7l0.7-0.7
		c-0.4-0.2-0.6-0.4-0.9-0.7c-0.2-0.3-0.3-0.7-0.3-1.1c0-0.3,0.1-0.5,0.2-0.8c0.1-0.2,0.2-0.5,0.4-0.6c0.2-0.2,0.4-0.3,0.6-0.4
		s0.5-0.2,0.8-0.2c0.9,0,1.5,0.4,1.9,1.2C240.3,55,240.3,55.5,240.3,56.2z"/>
</g>
<path id="XMLID_26_" class="st8" d="M198.9,68.9"/>
<g id="XMLID_15_">
	<path id="XMLID_25_" class="st6" d="M58.1,50.8c5.3-0.4,11-7.7,10.8-12.9l0-7.1l0-10l-5.9,7.3l0,10.3C63.1,42.2,62,46.2,58.1,50.8
		L58.1,50.8z"/>
	<g id="XMLID_16_">
		<path id="XMLID_24_" class="st6" d="M43.7,36.4c-1.5,1.9-2.9,3.7-4.4,5.6c0.2,7.3,4.8,13.4,10.7,15c7.7,2,17.2-3.9,18.8-14
			c-2.2,6.8-9.4,10.7-16.1,8.7C46.4,49.8,42.4,43.1,43.7,36.4z"/>
		<g id="XMLID_22_">
			<path id="XMLID_23_" class="st6" d="M16.4,35.9c-0.1-0.8-0.7-8.3,4.9-13.1c3.2-2.7,6.7-3.2,8.2-3.4l7.1,0c3.5,0,7,0,10.4,0
				c-1.5,1.9-3,3.8-4.5,5.7c-4.5,0.1-9.1,0.1-13.6,0.2c-1.9,0-2.7,0.1-3.8,0.4C20.3,27.1,17.7,32.5,16.4,35.9z"/>
		</g>
		<g id="XMLID_17_">
			<g id="XMLID_20_">
				<path id="XMLID_21_" class="st6" d="M16,52.4c0-0.4-0.1-0.9-0.1-1.6c0-2.3-0.1-6.9,2.4-10.3c3.2-4.2,9.1-4.3,10-4.3
					c1.3,0,2.6,0,3.9,0c3.5,0,7,0,10.4,0c-1.5,1.9-3,3.7-4.5,5.6c-5.3,0-9.2,0-10.8,0c-0.3,0-1.1,0-1.9,0.4
					c-0.8,0.3-1.3,0.7-1.6,0.9c0,0-3.8,2.9-3.8,10.7c0,0.1,0,0.8,0,1.7c0,0.5,0,0.9,0,1.4c0,0.8-0.1,0.8-0.1,1.4c0,0.3,0,0.5,0,0.5
					C19.7,58.9,18.8,57.5,16,52.4z"/>
			</g>
			<g id="XMLID_18_">
				<path id="XMLID_19_" class="st6" d="M23.9,37.2c-0.2,0.2-0.9,1.1-1,2.4c-0.1,1.5,0.8,2.6,0.9,2.8c-0.5,0.7-1.2,1.8-1.7,3.3
					c-0.6,1.7-0.7,3.2-0.7,4.2c0,3.5,0,6.9,0,10.4c-1.9-1.5-3.8-3-5.7-4.5c-0.1-1.2-0.2-3.1-0.1-5.4c0.3-4.4,0.5-7.8,2.9-10.4
					C19.4,39.2,21,37.9,23.9,37.2z"/>
			</g>
		</g>
	</g>
</g>
</svg>
